%TF.GenerationSoftware,KiCad,Pcbnew,9.0.6*%
%TF.CreationDate,2025-12-23T22:05:24+01:00*%
%TF.ProjectId,MVME712M_P2_Adapter,4d564d45-3731-4324-9d5f-50325f416461,rev?*%
%TF.SameCoordinates,Original*%
%TF.FileFunction,Legend,Bot*%
%TF.FilePolarity,Positive*%
%FSLAX46Y46*%
G04 Gerber Fmt 4.6, Leading zero omitted, Abs format (unit mm)*
G04 Created by KiCad (PCBNEW 9.0.6) date 2025-12-23 22:05:24*
%MOMM*%
%LPD*%
G01*
G04 APERTURE LIST*
%ADD10C,0.150000*%
%ADD11C,0.100000*%
%ADD12C,0.120000*%
G04 APERTURE END LIST*
D10*
X127591792Y-103774580D02*
X127639411Y-103822200D01*
X127639411Y-103822200D02*
X127782268Y-103869819D01*
X127782268Y-103869819D02*
X127877506Y-103869819D01*
X127877506Y-103869819D02*
X128020363Y-103822200D01*
X128020363Y-103822200D02*
X128115601Y-103726961D01*
X128115601Y-103726961D02*
X128163220Y-103631723D01*
X128163220Y-103631723D02*
X128210839Y-103441247D01*
X128210839Y-103441247D02*
X128210839Y-103298390D01*
X128210839Y-103298390D02*
X128163220Y-103107914D01*
X128163220Y-103107914D02*
X128115601Y-103012676D01*
X128115601Y-103012676D02*
X128020363Y-102917438D01*
X128020363Y-102917438D02*
X127877506Y-102869819D01*
X127877506Y-102869819D02*
X127782268Y-102869819D01*
X127782268Y-102869819D02*
X127639411Y-102917438D01*
X127639411Y-102917438D02*
X127591792Y-102965057D01*
X127258458Y-102869819D02*
X126639411Y-102869819D01*
X126639411Y-102869819D02*
X126972744Y-103250771D01*
X126972744Y-103250771D02*
X126829887Y-103250771D01*
X126829887Y-103250771D02*
X126734649Y-103298390D01*
X126734649Y-103298390D02*
X126687030Y-103346009D01*
X126687030Y-103346009D02*
X126639411Y-103441247D01*
X126639411Y-103441247D02*
X126639411Y-103679342D01*
X126639411Y-103679342D02*
X126687030Y-103774580D01*
X126687030Y-103774580D02*
X126734649Y-103822200D01*
X126734649Y-103822200D02*
X126829887Y-103869819D01*
X126829887Y-103869819D02*
X127115601Y-103869819D01*
X127115601Y-103869819D02*
X127210839Y-103822200D01*
X127210839Y-103822200D02*
X127258458Y-103774580D01*
X126258458Y-102965057D02*
X126210839Y-102917438D01*
X126210839Y-102917438D02*
X126115601Y-102869819D01*
X126115601Y-102869819D02*
X125877506Y-102869819D01*
X125877506Y-102869819D02*
X125782268Y-102917438D01*
X125782268Y-102917438D02*
X125734649Y-102965057D01*
X125734649Y-102965057D02*
X125687030Y-103060295D01*
X125687030Y-103060295D02*
X125687030Y-103155533D01*
X125687030Y-103155533D02*
X125734649Y-103298390D01*
X125734649Y-103298390D02*
X126306077Y-103869819D01*
X126306077Y-103869819D02*
X125687030Y-103869819D01*
X130210839Y-39084104D02*
X129734649Y-39084104D01*
X130306077Y-39369819D02*
X129972744Y-38369819D01*
X129972744Y-38369819D02*
X129639411Y-39369819D01*
X129401315Y-38369819D02*
X128782268Y-38369819D01*
X128782268Y-38369819D02*
X129115601Y-38750771D01*
X129115601Y-38750771D02*
X128972744Y-38750771D01*
X128972744Y-38750771D02*
X128877506Y-38798390D01*
X128877506Y-38798390D02*
X128829887Y-38846009D01*
X128829887Y-38846009D02*
X128782268Y-38941247D01*
X128782268Y-38941247D02*
X128782268Y-39179342D01*
X128782268Y-39179342D02*
X128829887Y-39274580D01*
X128829887Y-39274580D02*
X128877506Y-39322200D01*
X128877506Y-39322200D02*
X128972744Y-39369819D01*
X128972744Y-39369819D02*
X129258458Y-39369819D01*
X129258458Y-39369819D02*
X129353696Y-39322200D01*
X129353696Y-39322200D02*
X129401315Y-39274580D01*
X128401315Y-38465057D02*
X128353696Y-38417438D01*
X128353696Y-38417438D02*
X128258458Y-38369819D01*
X128258458Y-38369819D02*
X128020363Y-38369819D01*
X128020363Y-38369819D02*
X127925125Y-38417438D01*
X127925125Y-38417438D02*
X127877506Y-38465057D01*
X127877506Y-38465057D02*
X127829887Y-38560295D01*
X127829887Y-38560295D02*
X127829887Y-38655533D01*
X127829887Y-38655533D02*
X127877506Y-38798390D01*
X127877506Y-38798390D02*
X128448934Y-39369819D01*
X128448934Y-39369819D02*
X127829887Y-39369819D01*
X43091792Y-103774580D02*
X43139411Y-103822200D01*
X43139411Y-103822200D02*
X43282268Y-103869819D01*
X43282268Y-103869819D02*
X43377506Y-103869819D01*
X43377506Y-103869819D02*
X43520363Y-103822200D01*
X43520363Y-103822200D02*
X43615601Y-103726961D01*
X43615601Y-103726961D02*
X43663220Y-103631723D01*
X43663220Y-103631723D02*
X43710839Y-103441247D01*
X43710839Y-103441247D02*
X43710839Y-103298390D01*
X43710839Y-103298390D02*
X43663220Y-103107914D01*
X43663220Y-103107914D02*
X43615601Y-103012676D01*
X43615601Y-103012676D02*
X43520363Y-102917438D01*
X43520363Y-102917438D02*
X43377506Y-102869819D01*
X43377506Y-102869819D02*
X43282268Y-102869819D01*
X43282268Y-102869819D02*
X43139411Y-102917438D01*
X43139411Y-102917438D02*
X43091792Y-102965057D01*
X42139411Y-103869819D02*
X42710839Y-103869819D01*
X42425125Y-103869819D02*
X42425125Y-102869819D01*
X42425125Y-102869819D02*
X42520363Y-103012676D01*
X42520363Y-103012676D02*
X42615601Y-103107914D01*
X42615601Y-103107914D02*
X42710839Y-103155533D01*
X125710839Y-110584104D02*
X125234649Y-110584104D01*
X125806077Y-110869819D02*
X125472744Y-109869819D01*
X125472744Y-109869819D02*
X125139411Y-110869819D01*
X124901315Y-109869819D02*
X124282268Y-109869819D01*
X124282268Y-109869819D02*
X124615601Y-110250771D01*
X124615601Y-110250771D02*
X124472744Y-110250771D01*
X124472744Y-110250771D02*
X124377506Y-110298390D01*
X124377506Y-110298390D02*
X124329887Y-110346009D01*
X124329887Y-110346009D02*
X124282268Y-110441247D01*
X124282268Y-110441247D02*
X124282268Y-110679342D01*
X124282268Y-110679342D02*
X124329887Y-110774580D01*
X124329887Y-110774580D02*
X124377506Y-110822200D01*
X124377506Y-110822200D02*
X124472744Y-110869819D01*
X124472744Y-110869819D02*
X124758458Y-110869819D01*
X124758458Y-110869819D02*
X124853696Y-110822200D01*
X124853696Y-110822200D02*
X124901315Y-110774580D01*
X123901315Y-109965057D02*
X123853696Y-109917438D01*
X123853696Y-109917438D02*
X123758458Y-109869819D01*
X123758458Y-109869819D02*
X123520363Y-109869819D01*
X123520363Y-109869819D02*
X123425125Y-109917438D01*
X123425125Y-109917438D02*
X123377506Y-109965057D01*
X123377506Y-109965057D02*
X123329887Y-110060295D01*
X123329887Y-110060295D02*
X123329887Y-110155533D01*
X123329887Y-110155533D02*
X123377506Y-110298390D01*
X123377506Y-110298390D02*
X123948934Y-110869819D01*
X123948934Y-110869819D02*
X123329887Y-110869819D01*
D11*
X46243734Y-110586704D02*
X45767544Y-110586704D01*
X46338972Y-110872419D02*
X46005639Y-109872419D01*
X46005639Y-109872419D02*
X45672306Y-110872419D01*
X44815163Y-110872419D02*
X45386591Y-110872419D01*
X45100877Y-110872419D02*
X45100877Y-109872419D01*
X45100877Y-109872419D02*
X45196115Y-110015276D01*
X45196115Y-110015276D02*
X45291353Y-110110514D01*
X45291353Y-110110514D02*
X45386591Y-110158133D01*
D10*
X128591792Y-44774580D02*
X128639411Y-44822200D01*
X128639411Y-44822200D02*
X128782268Y-44869819D01*
X128782268Y-44869819D02*
X128877506Y-44869819D01*
X128877506Y-44869819D02*
X129020363Y-44822200D01*
X129020363Y-44822200D02*
X129115601Y-44726961D01*
X129115601Y-44726961D02*
X129163220Y-44631723D01*
X129163220Y-44631723D02*
X129210839Y-44441247D01*
X129210839Y-44441247D02*
X129210839Y-44298390D01*
X129210839Y-44298390D02*
X129163220Y-44107914D01*
X129163220Y-44107914D02*
X129115601Y-44012676D01*
X129115601Y-44012676D02*
X129020363Y-43917438D01*
X129020363Y-43917438D02*
X128877506Y-43869819D01*
X128877506Y-43869819D02*
X128782268Y-43869819D01*
X128782268Y-43869819D02*
X128639411Y-43917438D01*
X128639411Y-43917438D02*
X128591792Y-43965057D01*
X128258458Y-43869819D02*
X127639411Y-43869819D01*
X127639411Y-43869819D02*
X127972744Y-44250771D01*
X127972744Y-44250771D02*
X127829887Y-44250771D01*
X127829887Y-44250771D02*
X127734649Y-44298390D01*
X127734649Y-44298390D02*
X127687030Y-44346009D01*
X127687030Y-44346009D02*
X127639411Y-44441247D01*
X127639411Y-44441247D02*
X127639411Y-44679342D01*
X127639411Y-44679342D02*
X127687030Y-44774580D01*
X127687030Y-44774580D02*
X127734649Y-44822200D01*
X127734649Y-44822200D02*
X127829887Y-44869819D01*
X127829887Y-44869819D02*
X128115601Y-44869819D01*
X128115601Y-44869819D02*
X128210839Y-44822200D01*
X128210839Y-44822200D02*
X128258458Y-44774580D01*
X127258458Y-43965057D02*
X127210839Y-43917438D01*
X127210839Y-43917438D02*
X127115601Y-43869819D01*
X127115601Y-43869819D02*
X126877506Y-43869819D01*
X126877506Y-43869819D02*
X126782268Y-43917438D01*
X126782268Y-43917438D02*
X126734649Y-43965057D01*
X126734649Y-43965057D02*
X126687030Y-44060295D01*
X126687030Y-44060295D02*
X126687030Y-44155533D01*
X126687030Y-44155533D02*
X126734649Y-44298390D01*
X126734649Y-44298390D02*
X127306077Y-44869819D01*
X127306077Y-44869819D02*
X126687030Y-44869819D01*
D11*
X41743734Y-39086704D02*
X41267544Y-39086704D01*
X41838972Y-39372419D02*
X41505639Y-38372419D01*
X41505639Y-38372419D02*
X41172306Y-39372419D01*
X40315163Y-39372419D02*
X40886591Y-39372419D01*
X40600877Y-39372419D02*
X40600877Y-38372419D01*
X40600877Y-38372419D02*
X40696115Y-38515276D01*
X40696115Y-38515276D02*
X40791353Y-38610514D01*
X40791353Y-38610514D02*
X40886591Y-38658133D01*
D10*
X41091792Y-44774580D02*
X41139411Y-44822200D01*
X41139411Y-44822200D02*
X41282268Y-44869819D01*
X41282268Y-44869819D02*
X41377506Y-44869819D01*
X41377506Y-44869819D02*
X41520363Y-44822200D01*
X41520363Y-44822200D02*
X41615601Y-44726961D01*
X41615601Y-44726961D02*
X41663220Y-44631723D01*
X41663220Y-44631723D02*
X41710839Y-44441247D01*
X41710839Y-44441247D02*
X41710839Y-44298390D01*
X41710839Y-44298390D02*
X41663220Y-44107914D01*
X41663220Y-44107914D02*
X41615601Y-44012676D01*
X41615601Y-44012676D02*
X41520363Y-43917438D01*
X41520363Y-43917438D02*
X41377506Y-43869819D01*
X41377506Y-43869819D02*
X41282268Y-43869819D01*
X41282268Y-43869819D02*
X41139411Y-43917438D01*
X41139411Y-43917438D02*
X41091792Y-43965057D01*
X40139411Y-44869819D02*
X40710839Y-44869819D01*
X40425125Y-44869819D02*
X40425125Y-43869819D01*
X40425125Y-43869819D02*
X40520363Y-44012676D01*
X40520363Y-44012676D02*
X40615601Y-44107914D01*
X40615601Y-44107914D02*
X40710839Y-44155533D01*
D12*
%TO.C,P2*%
X37837000Y-108136000D02*
X43357000Y-108136000D01*
X37837000Y-113196000D02*
X37837000Y-108136000D01*
X43357000Y-108136000D02*
X43357000Y-109136000D01*
X43357000Y-109136000D02*
X44632000Y-109136000D01*
X44032000Y-108096000D02*
X44632000Y-108396000D01*
X44032000Y-108696000D02*
X44032000Y-108096000D01*
X44632000Y-108396000D02*
X44032000Y-108696000D01*
X46822000Y-109136000D02*
X47460000Y-109136000D01*
X49074000Y-109136000D02*
X50000000Y-109136000D01*
X51614000Y-109136000D02*
X52540000Y-109136000D01*
X54154000Y-109136000D02*
X55080000Y-109136000D01*
X56694000Y-109136000D02*
X57620000Y-109136000D01*
X59234000Y-109136000D02*
X60160000Y-109136000D01*
X61774000Y-109136000D02*
X62700000Y-109136000D01*
X64314000Y-109136000D02*
X65240000Y-109136000D01*
X66854000Y-109136000D02*
X67780000Y-109136000D01*
X69394000Y-109136000D02*
X70320000Y-109136000D01*
X71934000Y-109136000D02*
X72860000Y-109136000D01*
X74474000Y-109136000D02*
X75400000Y-109136000D01*
X77014000Y-109136000D02*
X77940000Y-109136000D01*
X79554000Y-109136000D02*
X80480000Y-109136000D01*
X82094000Y-109136000D02*
X83020000Y-109136000D01*
X84634000Y-109136000D02*
X85560000Y-109136000D01*
X87174000Y-109136000D02*
X88100000Y-109136000D01*
X89714000Y-109136000D02*
X90640000Y-109136000D01*
X92254000Y-109136000D02*
X93180000Y-109136000D01*
X94794000Y-109136000D02*
X95720000Y-109136000D01*
X97334000Y-109136000D02*
X98260000Y-109136000D01*
X99874000Y-109136000D02*
X100800000Y-109136000D01*
X102414000Y-109136000D02*
X103340000Y-109136000D01*
X104954000Y-109136000D02*
X105880000Y-109136000D01*
X107494000Y-109136000D02*
X108420000Y-109136000D01*
X110034000Y-109136000D02*
X110960000Y-109136000D01*
X112574000Y-109136000D02*
X113500000Y-109136000D01*
X115114000Y-109136000D02*
X116040000Y-109136000D01*
X117654000Y-109136000D02*
X118580000Y-109136000D01*
X120194000Y-109136000D02*
X121120000Y-109136000D01*
X122734000Y-109136000D02*
X123660000Y-109136000D01*
X125274000Y-109136000D02*
X126837000Y-109136000D01*
X126837000Y-108136000D02*
X126837000Y-109136000D01*
X132357000Y-108136000D02*
X126837000Y-108136000D01*
X132357000Y-113196000D02*
X132357000Y-108136000D01*
%TO.C,J2*%
X37390000Y-36140000D02*
X37390000Y-47460000D01*
X37390000Y-47460000D02*
X132610000Y-47460000D01*
X42500000Y-37450000D02*
X42500000Y-43650000D01*
X42500000Y-43650000D02*
X43500000Y-43650000D01*
X43500000Y-43650000D02*
X43500000Y-46150000D01*
X43500000Y-46150000D02*
X126500000Y-46150000D01*
X45330000Y-35270000D02*
X45930000Y-35270000D01*
X45630000Y-35950000D02*
X45330000Y-35270000D01*
X45930000Y-35270000D02*
X45630000Y-35950000D01*
X126500000Y-43650000D02*
X127500000Y-43650000D01*
X126500000Y-46150000D02*
X126500000Y-43650000D01*
X127500000Y-37450000D02*
X42500000Y-37450000D01*
X127500000Y-43650000D02*
X127500000Y-37450000D01*
X132610000Y-36140000D02*
X37390000Y-36140000D01*
X132610000Y-47460000D02*
X132610000Y-36140000D01*
%TD*%
M02*
