M48
; DRILL file {KiCad 9.0.6} date 2025-12-23T22:05:21+0100
; FORMAT={-:-/ absolute / metric / decimal}
; #@! TF.CreationDate,2025-12-23T22:05:21+01:00
; #@! TF.GenerationSoftware,Kicad,Pcbnew,9.0.6
; #@! TF.FileFunction,Plated,1,4,PTH
FMAT,2
METRIC
; #@! TA.AperFunction,Plated,PTH,ViaDrill
T1C0.300
; #@! TA.AperFunction,Plated,PTH,ComponentDrill
T2C0.800
; #@! TA.AperFunction,Plated,PTH,ComponentDrill
T3C1.000
; #@! TA.AperFunction,Plated,PTH,ComponentDrill
T4C1.010
%
G90
G05
T1
X44.086Y-72.029
X46.209Y-75.0
X51.179Y-48.266
X52.331Y-66.088
X55.123Y-98.763
X57.11Y-101.273
X58.237Y-63.5
X59.163Y-66.088
X59.949Y-63.5
X61.245Y-99.555
X62.907Y-70.355
X63.902Y-100.717
X64.911Y-63.118
X66.323Y-75.0
X66.645Y-100.921
X67.515Y-100.835
X67.811Y-73.9
X68.582Y-75.792
X70.13Y-63.37
X72.357Y-104.643
X73.975Y-55.0
X75.79Y-64.319
X78.629Y-62.975
X78.69Y-55.068
X79.805Y-54.207
X80.51Y-100.673
X82.543Y-101.205
X84.175Y-63.0
X84.211Y-48.266
X86.327Y-95.531
X87.707Y-75.435
X89.0Y-101.0
X89.5Y-70.0
X89.546Y-63.118
X89.726Y-95.937
X90.73Y-95.126
X92.622Y-100.608
X94.846Y-63.118
X96.092Y-75.109
X96.603Y-98.49
X97.305Y-55.0
X99.5Y-101.0
X100.18Y-110.093
X100.522Y-62.98
X102.155Y-101.0
X104.0Y-78.0
X104.897Y-97.712
X105.5Y-53.5
X105.703Y-96.208
X105.863Y-63.0
X106.83Y-74.147
X113.389Y-97.87
X113.505Y-99.349
X115.0Y-47.473
X115.25Y-101.25
X115.65Y-99.0
X119.306Y-49.059
X121.557Y-47.473
X122.77Y-46.165
X124.0Y-100.5
X125.373Y-48.266
X125.398Y-101.394
X125.5Y-37.5
X126.5Y-43.0
X128.719Y-46.366
T2
X48.5Y-76.5
X50.617Y-72.0
X51.0Y-76.5
X53.157Y-72.0
X55.697Y-72.0
X58.237Y-72.0
X60.777Y-72.0
X63.317Y-72.0
X65.857Y-72.0
X68.397Y-72.0
X73.5Y-76.5
X76.0Y-76.5
X76.207Y-72.0
X78.747Y-72.0
X81.287Y-72.0
X83.827Y-72.0
X86.367Y-72.0
X88.907Y-72.0
X91.447Y-72.0
X93.987Y-72.0
X99.0Y-76.5
X101.5Y-76.5
X101.797Y-72.0
X101.88Y-82.0
X104.337Y-72.0
X106.877Y-72.0
X109.417Y-72.0
X109.5Y-82.0
X111.957Y-72.0
X114.497Y-72.0
X117.037Y-72.0
X119.577Y-72.0
T3
X45.63Y-39.26
X45.63Y-41.8
X45.63Y-44.34
X45.727Y-103.316
X45.727Y-105.856
X45.727Y-108.396
X48.17Y-39.26
X48.17Y-41.8
X48.17Y-44.34
X48.267Y-103.316
X48.267Y-105.856
X48.267Y-108.396
X50.71Y-39.26
X50.71Y-41.8
X50.71Y-44.34
X50.807Y-103.316
X50.807Y-105.856
X50.807Y-108.396
X53.25Y-39.26
X53.25Y-41.8
X53.25Y-44.34
X53.347Y-103.316
X53.347Y-105.856
X53.347Y-108.396
X54.04Y-57.96
X54.04Y-60.5
X55.79Y-39.26
X55.79Y-41.8
X55.79Y-44.34
X55.887Y-103.316
X55.887Y-105.856
X55.887Y-108.396
X56.58Y-57.96
X56.58Y-60.5
X58.33Y-39.26
X58.33Y-41.8
X58.33Y-44.34
X58.427Y-103.316
X58.427Y-105.856
X58.427Y-108.396
X59.12Y-57.96
X59.12Y-60.5
X60.87Y-39.26
X60.87Y-41.8
X60.87Y-44.34
X60.967Y-103.316
X60.967Y-105.856
X60.967Y-108.396
X61.66Y-57.96
X61.66Y-60.5
X63.41Y-39.26
X63.41Y-41.8
X63.41Y-44.34
X63.507Y-103.316
X63.507Y-105.856
X63.507Y-108.396
X64.2Y-57.96
X64.2Y-60.5
X65.95Y-39.26
X65.95Y-41.8
X65.95Y-44.34
X66.047Y-103.316
X66.047Y-105.856
X66.047Y-108.396
X66.74Y-57.96
X66.74Y-60.5
X68.49Y-39.26
X68.49Y-41.8
X68.49Y-44.34
X68.587Y-103.316
X68.587Y-105.856
X68.587Y-108.396
X69.28Y-57.96
X69.28Y-60.5
X71.03Y-39.26
X71.03Y-41.8
X71.03Y-44.34
X71.127Y-103.316
X71.127Y-105.856
X71.127Y-108.396
X71.82Y-57.96
X71.82Y-60.5
X73.57Y-39.26
X73.57Y-41.8
X73.57Y-44.34
X73.667Y-103.316
X73.667Y-105.856
X73.667Y-108.396
X74.36Y-57.96
X74.36Y-60.5
X76.11Y-39.26
X76.11Y-41.8
X76.11Y-44.34
X76.207Y-103.316
X76.207Y-105.856
X76.207Y-108.396
X76.9Y-57.96
X76.9Y-60.5
X78.65Y-39.26
X78.65Y-41.8
X78.65Y-44.34
X78.747Y-103.316
X78.747Y-105.856
X78.747Y-108.396
X79.44Y-57.96
X79.44Y-60.5
X81.19Y-39.26
X81.19Y-41.8
X81.19Y-44.34
X81.287Y-103.316
X81.287Y-105.856
X81.287Y-108.396
X81.98Y-57.96
X81.98Y-60.5
X83.73Y-39.26
X83.73Y-41.8
X83.73Y-44.34
X83.827Y-103.316
X83.827Y-105.856
X83.827Y-108.396
X84.52Y-57.96
X84.52Y-60.5
X86.27Y-39.26
X86.27Y-41.8
X86.27Y-44.34
X86.367Y-103.316
X86.367Y-105.856
X86.367Y-108.396
X87.06Y-57.96
X87.06Y-60.5
X88.81Y-39.26
X88.81Y-41.8
X88.81Y-44.34
X88.907Y-103.316
X88.907Y-105.856
X88.907Y-108.396
X89.6Y-57.96
X89.6Y-60.5
X91.35Y-39.26
X91.35Y-41.8
X91.35Y-44.34
X91.447Y-103.316
X91.447Y-105.856
X91.447Y-108.396
X92.14Y-57.96
X92.14Y-60.5
X93.89Y-39.26
X93.89Y-41.8
X93.89Y-44.34
X93.987Y-103.316
X93.987Y-105.856
X93.987Y-108.396
X94.68Y-57.96
X94.68Y-60.5
X96.43Y-39.26
X96.43Y-41.8
X96.43Y-44.34
X96.527Y-103.316
X96.527Y-105.856
X96.527Y-108.396
X97.22Y-57.96
X97.22Y-60.5
X98.97Y-39.26
X98.97Y-41.8
X98.97Y-44.34
X99.067Y-103.316
X99.067Y-105.856
X99.067Y-108.396
X99.76Y-57.96
X99.76Y-60.5
X101.51Y-39.26
X101.51Y-41.8
X101.51Y-44.34
X101.607Y-103.316
X101.607Y-105.856
X101.607Y-108.396
X102.3Y-57.96
X102.3Y-60.5
X104.05Y-39.26
X104.05Y-41.8
X104.05Y-44.34
X104.147Y-103.316
X104.147Y-105.856
X104.147Y-108.396
X104.84Y-57.96
X104.84Y-60.5
X106.59Y-39.26
X106.59Y-41.8
X106.59Y-44.34
X106.687Y-103.316
X106.687Y-105.856
X106.687Y-108.396
X107.38Y-57.96
X107.38Y-60.5
X109.13Y-39.26
X109.13Y-41.8
X109.13Y-44.34
X109.227Y-103.316
X109.227Y-105.856
X109.227Y-108.396
X109.92Y-57.96
X109.92Y-60.5
X111.67Y-39.26
X111.67Y-41.8
X111.67Y-44.34
X111.767Y-103.316
X111.767Y-105.856
X111.767Y-108.396
X112.46Y-57.96
X112.46Y-60.5
X114.21Y-39.26
X114.21Y-41.8
X114.21Y-44.34
X114.307Y-103.316
X114.307Y-105.856
X114.307Y-108.396
X115.0Y-57.96
X115.0Y-60.5
X116.75Y-39.26
X116.75Y-41.8
X116.75Y-44.34
X116.847Y-103.316
X116.847Y-105.856
X116.847Y-108.396
X119.29Y-39.26
X119.29Y-41.8
X119.29Y-44.34
X119.387Y-103.316
X119.387Y-105.856
X119.387Y-108.396
X121.83Y-39.26
X121.83Y-41.8
X121.83Y-44.34
X121.927Y-103.316
X121.927Y-105.856
X121.927Y-108.396
X124.37Y-39.26
X124.37Y-41.8
X124.37Y-44.34
X124.467Y-103.316
X124.467Y-105.856
X124.467Y-108.396
X126.5Y-72.34
X126.5Y-74.88
X126.5Y-77.42
X126.5Y-79.96
X126.5Y-82.5
T4
X114.0Y-82.0
X119.1Y-83.2
M30
