%TF.GenerationSoftware,KiCad,Pcbnew,9.0.6*%
%TF.CreationDate,2025-12-23T22:05:24+01:00*%
%TF.ProjectId,MVME712M_P2_Adapter,4d564d45-3731-4324-9d5f-50325f416461,rev?*%
%TF.SameCoordinates,Original*%
%TF.FileFunction,Soldermask,Bot*%
%TF.FilePolarity,Negative*%
%FSLAX46Y46*%
G04 Gerber Fmt 4.6, Leading zero omitted, Abs format (unit mm)*
G04 Created by KiCad (PCBNEW 9.0.6) date 2025-12-23 22:05:24*
%MOMM*%
%LPD*%
G01*
G04 APERTURE LIST*
G04 Aperture macros list*
%AMRoundRect*
0 Rectangle with rounded corners*
0 $1 Rounding radius*
0 $2 $3 $4 $5 $6 $7 $8 $9 X,Y pos of 4 corners*
0 Add a 4 corners polygon primitive as box body*
4,1,4,$2,$3,$4,$5,$6,$7,$8,$9,$2,$3,0*
0 Add four circle primitives for the rounded corners*
1,1,$1+$1,$2,$3*
1,1,$1+$1,$4,$5*
1,1,$1+$1,$6,$7*
1,1,$1+$1,$8,$9*
0 Add four rect primitives between the rounded corners*
20,1,$1+$1,$2,$3,$4,$5,0*
20,1,$1+$1,$4,$5,$6,$7,0*
20,1,$1+$1,$6,$7,$8,$9,0*
20,1,$1+$1,$8,$9,$2,$3,0*%
G04 Aperture macros list end*
%ADD10RoundRect,0.250000X0.600000X-0.600000X0.600000X0.600000X-0.600000X0.600000X-0.600000X-0.600000X0*%
%ADD11C,1.700000*%
%ADD12C,2.010000*%
%ADD13C,1.600000*%
%ADD14R,1.600000X1.600000*%
%ADD15R,1.700000X1.700000*%
%ADD16RoundRect,0.250000X0.550000X0.550000X-0.550000X0.550000X-0.550000X-0.550000X0.550000X-0.550000X0*%
%ADD17C,2.850000*%
%ADD18RoundRect,0.249999X-0.525001X-0.525001X0.525001X-0.525001X0.525001X0.525001X-0.525001X0.525001X0*%
%ADD19C,1.550000*%
%ADD20RoundRect,0.249999X-0.525001X0.525001X-0.525001X-0.525001X0.525001X-0.525001X0.525001X0.525001X0*%
G04 APERTURE END LIST*
D10*
%TO.C,J3*%
X54040000Y-60500000D03*
D11*
X54040000Y-57960000D03*
X56580000Y-60500000D03*
X56580000Y-57960000D03*
X59120000Y-60500000D03*
X59120000Y-57960000D03*
X61660000Y-60500000D03*
X61660000Y-57960000D03*
X64200000Y-60500000D03*
X64200000Y-57960000D03*
X66740000Y-60500000D03*
X66740000Y-57960000D03*
X69280000Y-60500000D03*
X69280000Y-57960000D03*
X71820000Y-60500000D03*
X71820000Y-57960000D03*
X74360000Y-60500000D03*
X74360000Y-57960000D03*
X76900000Y-60500000D03*
X76900000Y-57960000D03*
X79440000Y-60500000D03*
X79440000Y-57960000D03*
X81980000Y-60500000D03*
X81980000Y-57960000D03*
X84520000Y-60500000D03*
X84520000Y-57960000D03*
X87060000Y-60500000D03*
X87060000Y-57960000D03*
X89600000Y-60500000D03*
X89600000Y-57960000D03*
X92140000Y-60500000D03*
X92140000Y-57960000D03*
X94680000Y-60500000D03*
X94680000Y-57960000D03*
X97220000Y-60500000D03*
X97220000Y-57960000D03*
X99760000Y-60500000D03*
X99760000Y-57960000D03*
X102300000Y-60500000D03*
X102300000Y-57960000D03*
X104840000Y-60500000D03*
X104840000Y-57960000D03*
X107380000Y-60500000D03*
X107380000Y-57960000D03*
X109920000Y-60500000D03*
X109920000Y-57960000D03*
X112460000Y-60500000D03*
X112460000Y-57960000D03*
X115000000Y-60500000D03*
X115000000Y-57960000D03*
%TD*%
D12*
%TO.C,F1*%
X114000000Y-82000000D03*
X119100000Y-83200000D03*
%TD*%
D13*
%TO.C,C2*%
X76000000Y-76500000D03*
X73500000Y-76500000D03*
%TD*%
D14*
%TO.C,RN2*%
X93987000Y-72000000D03*
D13*
X91447000Y-72000000D03*
X88907000Y-72000000D03*
X86367000Y-72000000D03*
X83827000Y-72000000D03*
X81287000Y-72000000D03*
X78747000Y-72000000D03*
X76207000Y-72000000D03*
%TD*%
%TO.C,C1*%
X51000000Y-76500000D03*
X48500000Y-76500000D03*
%TD*%
%TO.C,C3*%
X101500000Y-76500000D03*
X99000000Y-76500000D03*
%TD*%
D15*
%TO.C,J1*%
X126500000Y-72340000D03*
D11*
X126500000Y-74880000D03*
X126500000Y-77420000D03*
X126500000Y-79960000D03*
X126500000Y-82500000D03*
%TD*%
D14*
%TO.C,RN1*%
X119577000Y-72000000D03*
D13*
X117037000Y-72000000D03*
X114497000Y-72000000D03*
X111957000Y-72000000D03*
X109417000Y-72000000D03*
X106877000Y-72000000D03*
X104337000Y-72000000D03*
X101797000Y-72000000D03*
%TD*%
D14*
%TO.C,RN3*%
X68397000Y-72000000D03*
D13*
X65857000Y-72000000D03*
X63317000Y-72000000D03*
X60777000Y-72000000D03*
X58237000Y-72000000D03*
X55697000Y-72000000D03*
X53157000Y-72000000D03*
X50617000Y-72000000D03*
%TD*%
D16*
%TO.C,D1*%
X109500000Y-82000000D03*
D13*
X101880000Y-82000000D03*
%TD*%
D17*
%TO.C,P2*%
X40647000Y-110936000D03*
X129547000Y-110936000D03*
D18*
X45727000Y-108396000D03*
D19*
X48267000Y-108396000D03*
X50807000Y-108396000D03*
X53347000Y-108396000D03*
X55887000Y-108396000D03*
X58427000Y-108396000D03*
X60967000Y-108396000D03*
X63507000Y-108396000D03*
X66047000Y-108396000D03*
X68587000Y-108396000D03*
X71127000Y-108396000D03*
X73667000Y-108396000D03*
X76207000Y-108396000D03*
X78747000Y-108396000D03*
X81287000Y-108396000D03*
X83827000Y-108396000D03*
X86367000Y-108396000D03*
X88907000Y-108396000D03*
X91447000Y-108396000D03*
X93987000Y-108396000D03*
X96527000Y-108396000D03*
X99067000Y-108396000D03*
X101607000Y-108396000D03*
X104147000Y-108396000D03*
X106687000Y-108396000D03*
X109227000Y-108396000D03*
X111767000Y-108396000D03*
X114307000Y-108396000D03*
X116847000Y-108396000D03*
X119387000Y-108396000D03*
X121927000Y-108396000D03*
X124467000Y-108396000D03*
X45727000Y-105856000D03*
X48267000Y-105856000D03*
X50807000Y-105856000D03*
X53347000Y-105856000D03*
X55887000Y-105856000D03*
X58427000Y-105856000D03*
X60967000Y-105856000D03*
X63507000Y-105856000D03*
X66047000Y-105856000D03*
X68587000Y-105856000D03*
X71127000Y-105856000D03*
X73667000Y-105856000D03*
X76207000Y-105856000D03*
X78747000Y-105856000D03*
X81287000Y-105856000D03*
X83827000Y-105856000D03*
X86367000Y-105856000D03*
X88907000Y-105856000D03*
X91447000Y-105856000D03*
X93987000Y-105856000D03*
X96527000Y-105856000D03*
X99067000Y-105856000D03*
X101607000Y-105856000D03*
X104147000Y-105856000D03*
X106687000Y-105856000D03*
X109227000Y-105856000D03*
X111767000Y-105856000D03*
X114307000Y-105856000D03*
X116847000Y-105856000D03*
X119387000Y-105856000D03*
X121927000Y-105856000D03*
X124467000Y-105856000D03*
X45727000Y-103316000D03*
X48267000Y-103316000D03*
X50807000Y-103316000D03*
X53347000Y-103316000D03*
X55887000Y-103316000D03*
X58427000Y-103316000D03*
X60967000Y-103316000D03*
X63507000Y-103316000D03*
X66047000Y-103316000D03*
X68587000Y-103316000D03*
X71127000Y-103316000D03*
X73667000Y-103316000D03*
X76207000Y-103316000D03*
X78747000Y-103316000D03*
X81287000Y-103316000D03*
X83827000Y-103316000D03*
X86367000Y-103316000D03*
X88907000Y-103316000D03*
X91447000Y-103316000D03*
X93987000Y-103316000D03*
X96527000Y-103316000D03*
X99067000Y-103316000D03*
X101607000Y-103316000D03*
X104147000Y-103316000D03*
X106687000Y-103316000D03*
X109227000Y-103316000D03*
X111767000Y-103316000D03*
X114307000Y-103316000D03*
X116847000Y-103316000D03*
X119387000Y-103316000D03*
X121927000Y-103316000D03*
X124467000Y-103316000D03*
%TD*%
D17*
%TO.C,J2*%
X130000000Y-41500000D03*
X40000000Y-41500000D03*
D20*
X45630000Y-39260000D03*
D19*
X48170000Y-39260000D03*
X50710000Y-39260000D03*
X53250000Y-39260000D03*
X55790000Y-39260000D03*
X58330000Y-39260000D03*
X60870000Y-39260000D03*
X63410000Y-39260000D03*
X65950000Y-39260000D03*
X68490000Y-39260000D03*
X71030000Y-39260000D03*
X73570000Y-39260000D03*
X76110000Y-39260000D03*
X78650000Y-39260000D03*
X81190000Y-39260000D03*
X83730000Y-39260000D03*
X86270000Y-39260000D03*
X88810000Y-39260000D03*
X91350000Y-39260000D03*
X93890000Y-39260000D03*
X96430000Y-39260000D03*
X98970000Y-39260000D03*
X101510000Y-39260000D03*
X104050000Y-39260000D03*
X106590000Y-39260000D03*
X109130000Y-39260000D03*
X111670000Y-39260000D03*
X114210000Y-39260000D03*
X116750000Y-39260000D03*
X119290000Y-39260000D03*
X121830000Y-39260000D03*
X124370000Y-39260000D03*
X45630000Y-41800000D03*
X48170000Y-41800000D03*
X50710000Y-41800000D03*
X53250000Y-41800000D03*
X55790000Y-41800000D03*
X58330000Y-41800000D03*
X60870000Y-41800000D03*
X63410000Y-41800000D03*
X65950000Y-41800000D03*
X68490000Y-41800000D03*
X71030000Y-41800000D03*
X73570000Y-41800000D03*
X76110000Y-41800000D03*
X78650000Y-41800000D03*
X81190000Y-41800000D03*
X83730000Y-41800000D03*
X86270000Y-41800000D03*
X88810000Y-41800000D03*
X91350000Y-41800000D03*
X93890000Y-41800000D03*
X96430000Y-41800000D03*
X98970000Y-41800000D03*
X101510000Y-41800000D03*
X104050000Y-41800000D03*
X106590000Y-41800000D03*
X109130000Y-41800000D03*
X111670000Y-41800000D03*
X114210000Y-41800000D03*
X116750000Y-41800000D03*
X119290000Y-41800000D03*
X121830000Y-41800000D03*
X124370000Y-41800000D03*
X45630000Y-44340000D03*
X48170000Y-44340000D03*
X50710000Y-44340000D03*
X53250000Y-44340000D03*
X55790000Y-44340000D03*
X58330000Y-44340000D03*
X60870000Y-44340000D03*
X63410000Y-44340000D03*
X65950000Y-44340000D03*
X68490000Y-44340000D03*
X71030000Y-44340000D03*
X73570000Y-44340000D03*
X76110000Y-44340000D03*
X78650000Y-44340000D03*
X81190000Y-44340000D03*
X83730000Y-44340000D03*
X86270000Y-44340000D03*
X88810000Y-44340000D03*
X91350000Y-44340000D03*
X93890000Y-44340000D03*
X96430000Y-44340000D03*
X98970000Y-44340000D03*
X101510000Y-44340000D03*
X104050000Y-44340000D03*
X106590000Y-44340000D03*
X109130000Y-44340000D03*
X111670000Y-44340000D03*
X114210000Y-44340000D03*
X116750000Y-44340000D03*
X119290000Y-44340000D03*
X121830000Y-44340000D03*
X124370000Y-44340000D03*
%TD*%
M02*
