%TF.GenerationSoftware,KiCad,Pcbnew,9.0.6*%
%TF.CreationDate,2025-12-23T22:05:24+01:00*%
%TF.ProjectId,MVME712M_P2_Adapter,4d564d45-3731-4324-9d5f-50325f416461,rev?*%
%TF.SameCoordinates,Original*%
%TF.FileFunction,Copper,L1,Top*%
%TF.FilePolarity,Positive*%
%FSLAX46Y46*%
G04 Gerber Fmt 4.6, Leading zero omitted, Abs format (unit mm)*
G04 Created by KiCad (PCBNEW 9.0.6) date 2025-12-23 22:05:24*
%MOMM*%
%LPD*%
G01*
G04 APERTURE LIST*
G04 Aperture macros list*
%AMRoundRect*
0 Rectangle with rounded corners*
0 $1 Rounding radius*
0 $2 $3 $4 $5 $6 $7 $8 $9 X,Y pos of 4 corners*
0 Add a 4 corners polygon primitive as box body*
4,1,4,$2,$3,$4,$5,$6,$7,$8,$9,$2,$3,0*
0 Add four circle primitives for the rounded corners*
1,1,$1+$1,$2,$3*
1,1,$1+$1,$4,$5*
1,1,$1+$1,$6,$7*
1,1,$1+$1,$8,$9*
0 Add four rect primitives between the rounded corners*
20,1,$1+$1,$2,$3,$4,$5,0*
20,1,$1+$1,$4,$5,$6,$7,0*
20,1,$1+$1,$6,$7,$8,$9,0*
20,1,$1+$1,$8,$9,$2,$3,0*%
G04 Aperture macros list end*
%TA.AperFunction,ComponentPad*%
%ADD10RoundRect,0.250000X0.600000X-0.600000X0.600000X0.600000X-0.600000X0.600000X-0.600000X-0.600000X0*%
%TD*%
%TA.AperFunction,ComponentPad*%
%ADD11C,1.700000*%
%TD*%
%TA.AperFunction,ComponentPad*%
%ADD12C,2.010000*%
%TD*%
%TA.AperFunction,ComponentPad*%
%ADD13C,1.600000*%
%TD*%
%TA.AperFunction,ComponentPad*%
%ADD14R,1.600000X1.600000*%
%TD*%
%TA.AperFunction,ComponentPad*%
%ADD15R,1.700000X1.700000*%
%TD*%
%TA.AperFunction,ComponentPad*%
%ADD16RoundRect,0.250000X0.550000X0.550000X-0.550000X0.550000X-0.550000X-0.550000X0.550000X-0.550000X0*%
%TD*%
%TA.AperFunction,ComponentPad*%
%ADD17RoundRect,0.249999X-0.525001X-0.525001X0.525001X-0.525001X0.525001X0.525001X-0.525001X0.525001X0*%
%TD*%
%TA.AperFunction,ComponentPad*%
%ADD18C,1.550000*%
%TD*%
%TA.AperFunction,ComponentPad*%
%ADD19RoundRect,0.249999X-0.525001X0.525001X-0.525001X-0.525001X0.525001X-0.525001X0.525001X0.525001X0*%
%TD*%
%TA.AperFunction,ViaPad*%
%ADD20C,0.600000*%
%TD*%
%TA.AperFunction,Conductor*%
%ADD21C,0.200000*%
%TD*%
G04 APERTURE END LIST*
D10*
%TO.P,J3,1,Pin_1*%
%TO.N,GND*%
X54040000Y-60500000D03*
D11*
%TO.P,J3,2,Pin_2*%
%TO.N,DB0*%
X54040000Y-57960000D03*
%TO.P,J3,3,Pin_3*%
%TO.N,GND*%
X56580000Y-60500000D03*
%TO.P,J3,4,Pin_4*%
%TO.N,DB1*%
X56580000Y-57960000D03*
%TO.P,J3,5,Pin_5*%
%TO.N,GND*%
X59120000Y-60500000D03*
%TO.P,J3,6,Pin_6*%
%TO.N,DB2*%
X59120000Y-57960000D03*
%TO.P,J3,7,Pin_7*%
%TO.N,GND*%
X61660000Y-60500000D03*
%TO.P,J3,8,Pin_8*%
%TO.N,DB3*%
X61660000Y-57960000D03*
%TO.P,J3,9,Pin_9*%
%TO.N,GND*%
X64200000Y-60500000D03*
%TO.P,J3,10,Pin_10*%
%TO.N,DB4*%
X64200000Y-57960000D03*
%TO.P,J3,11,Pin_11*%
%TO.N,GND*%
X66740000Y-60500000D03*
%TO.P,J3,12,Pin_12*%
%TO.N,DB5*%
X66740000Y-57960000D03*
%TO.P,J3,13,Pin_13*%
%TO.N,GND*%
X69280000Y-60500000D03*
%TO.P,J3,14,Pin_14*%
%TO.N,DB6*%
X69280000Y-57960000D03*
%TO.P,J3,15,Pin_15*%
%TO.N,GND*%
X71820000Y-60500000D03*
%TO.P,J3,16,Pin_16*%
%TO.N,DB7*%
X71820000Y-57960000D03*
%TO.P,J3,17,Pin_17*%
%TO.N,GND*%
X74360000Y-60500000D03*
%TO.P,J3,18,Pin_18*%
%TO.N,DBP*%
X74360000Y-57960000D03*
%TO.P,J3,19,Pin_19*%
%TO.N,GND*%
X76900000Y-60500000D03*
%TO.P,J3,20,Pin_20*%
X76900000Y-57960000D03*
%TO.P,J3,21,Pin_21*%
X79440000Y-60500000D03*
%TO.P,J3,22,Pin_22*%
X79440000Y-57960000D03*
%TO.P,J3,23,Pin_23*%
X81980000Y-60500000D03*
%TO.P,J3,24,Pin_24*%
X81980000Y-57960000D03*
%TO.P,J3,25,Pin_25*%
%TO.N,unconnected-(J3-Pin_25-Pad25)*%
X84520000Y-60500000D03*
%TO.P,J3,26,Pin_26*%
%TO.N,TERMPWR*%
X84520000Y-57960000D03*
%TO.P,J3,27,Pin_27*%
%TO.N,GND*%
X87060000Y-60500000D03*
%TO.P,J3,28,Pin_28*%
X87060000Y-57960000D03*
%TO.P,J3,29,Pin_29*%
X89600000Y-60500000D03*
%TO.P,J3,30,Pin_30*%
X89600000Y-57960000D03*
%TO.P,J3,31,Pin_31*%
X92140000Y-60500000D03*
%TO.P,J3,32,Pin_32*%
%TO.N,ATN*%
X92140000Y-57960000D03*
%TO.P,J3,33,Pin_33*%
%TO.N,GND*%
X94680000Y-60500000D03*
%TO.P,J3,34,Pin_34*%
X94680000Y-57960000D03*
%TO.P,J3,35,Pin_35*%
X97220000Y-60500000D03*
%TO.P,J3,36,Pin_36*%
%TO.N,BSY*%
X97220000Y-57960000D03*
%TO.P,J3,37,Pin_37*%
%TO.N,GND*%
X99760000Y-60500000D03*
%TO.P,J3,38,Pin_38*%
%TO.N,ACK*%
X99760000Y-57960000D03*
%TO.P,J3,39,Pin_39*%
%TO.N,GND*%
X102300000Y-60500000D03*
%TO.P,J3,40,Pin_40*%
%TO.N,RST*%
X102300000Y-57960000D03*
%TO.P,J3,41,Pin_41*%
%TO.N,GND*%
X104840000Y-60500000D03*
%TO.P,J3,42,Pin_42*%
%TO.N,MSG*%
X104840000Y-57960000D03*
%TO.P,J3,43,Pin_43*%
%TO.N,GND*%
X107380000Y-60500000D03*
%TO.P,J3,44,Pin_44*%
%TO.N,SEL*%
X107380000Y-57960000D03*
%TO.P,J3,45,Pin_45*%
%TO.N,GND*%
X109920000Y-60500000D03*
%TO.P,J3,46,Pin_46*%
%TO.N,D{slash}C*%
X109920000Y-57960000D03*
%TO.P,J3,47,Pin_47*%
%TO.N,GND*%
X112460000Y-60500000D03*
%TO.P,J3,48,Pin_48*%
%TO.N,REQ*%
X112460000Y-57960000D03*
%TO.P,J3,49,Pin_49*%
%TO.N,GND*%
X115000000Y-60500000D03*
%TO.P,J3,50,Pin_50*%
%TO.N,O{slash}I*%
X115000000Y-57960000D03*
%TD*%
D12*
%TO.P,F1,1*%
%TO.N,DPWR*%
X114000000Y-82000000D03*
%TO.P,F1,2*%
%TO.N,TERMPWR*%
X119100000Y-83200000D03*
%TD*%
D13*
%TO.P,C2,1*%
%TO.N,DPWR*%
X76000000Y-76500000D03*
%TO.P,C2,2*%
%TO.N,GND*%
X73500000Y-76500000D03*
%TD*%
D14*
%TO.P,RN2,1,COM1*%
%TO.N,GND*%
X93987000Y-72000000D03*
D13*
%TO.P,RN2,2,R1*%
%TO.N,ACK*%
X91447000Y-72000000D03*
%TO.P,RN2,3,R2*%
%TO.N,BSY*%
X88907000Y-72000000D03*
%TO.P,RN2,4,R3*%
%TO.N,ATN*%
X86367000Y-72000000D03*
%TO.P,RN2,5,R4*%
%TO.N,DBP*%
X83827000Y-72000000D03*
%TO.P,RN2,6,R5*%
%TO.N,DB7*%
X81287000Y-72000000D03*
%TO.P,RN2,7,R6*%
%TO.N,DB6*%
X78747000Y-72000000D03*
%TO.P,RN2,8,COM2*%
%TO.N,DPWR*%
X76207000Y-72000000D03*
%TD*%
%TO.P,C1,1*%
%TO.N,DPWR*%
X51000000Y-76500000D03*
%TO.P,C1,2*%
%TO.N,GND*%
X48500000Y-76500000D03*
%TD*%
%TO.P,C3,1*%
%TO.N,DPWR*%
X101500000Y-76500000D03*
%TO.P,C3,2*%
%TO.N,GND*%
X99000000Y-76500000D03*
%TD*%
D15*
%TO.P,J1,1,Pin_1*%
%TO.N,GND*%
X126500000Y-72340000D03*
D11*
%TO.P,J1,2,Pin_2*%
%TO.N,TXD1*%
X126500000Y-74880000D03*
%TO.P,J1,3,Pin_3*%
%TO.N,RXD1*%
X126500000Y-77420000D03*
%TO.P,J1,4,Pin_4*%
%TO.N,CTS1*%
X126500000Y-79960000D03*
%TO.P,J1,5,Pin_5*%
%TO.N,RTS1*%
X126500000Y-82500000D03*
%TD*%
D14*
%TO.P,RN1,1,COM1*%
%TO.N,GND*%
X119577000Y-72000000D03*
D13*
%TO.P,RN1,2,R1*%
%TO.N,O{slash}I*%
X117037000Y-72000000D03*
%TO.P,RN1,3,R2*%
%TO.N,REQ*%
X114497000Y-72000000D03*
%TO.P,RN1,4,R3*%
%TO.N,D{slash}C*%
X111957000Y-72000000D03*
%TO.P,RN1,5,R4*%
%TO.N,SEL*%
X109417000Y-72000000D03*
%TO.P,RN1,6,R5*%
%TO.N,MSG*%
X106877000Y-72000000D03*
%TO.P,RN1,7,R6*%
%TO.N,RST*%
X104337000Y-72000000D03*
%TO.P,RN1,8,COM2*%
%TO.N,DPWR*%
X101797000Y-72000000D03*
%TD*%
D14*
%TO.P,RN3,1,COM1*%
%TO.N,GND*%
X68397000Y-72000000D03*
D13*
%TO.P,RN3,2,R1*%
%TO.N,DB5*%
X65857000Y-72000000D03*
%TO.P,RN3,3,R2*%
%TO.N,DB4*%
X63317000Y-72000000D03*
%TO.P,RN3,4,R3*%
%TO.N,DB3*%
X60777000Y-72000000D03*
%TO.P,RN3,5,R4*%
%TO.N,DB2*%
X58237000Y-72000000D03*
%TO.P,RN3,6,R5*%
%TO.N,DB1*%
X55697000Y-72000000D03*
%TO.P,RN3,7,R6*%
%TO.N,DB0*%
X53157000Y-72000000D03*
%TO.P,RN3,8,COM2*%
%TO.N,DPWR*%
X50617000Y-72000000D03*
%TD*%
D16*
%TO.P,D1,1,K*%
%TO.N,DPWR*%
X109500000Y-82000000D03*
D13*
%TO.P,D1,2,A*%
%TO.N,VCC*%
X101880000Y-82000000D03*
%TD*%
D17*
%TO.P,P2,a1,Pin_a1*%
%TO.N,DB0*%
X45727000Y-108396000D03*
D18*
%TO.P,P2,a2,Pin_a2*%
%TO.N,DB1*%
X48267000Y-108396000D03*
%TO.P,P2,a3,Pin_a3*%
%TO.N,DB2*%
X50807000Y-108396000D03*
%TO.P,P2,a4,Pin_a4*%
%TO.N,DB3*%
X53347000Y-108396000D03*
%TO.P,P2,a5,Pin_a5*%
%TO.N,DB4*%
X55887000Y-108396000D03*
%TO.P,P2,a6,Pin_a6*%
%TO.N,DB5*%
X58427000Y-108396000D03*
%TO.P,P2,a7,Pin_a7*%
%TO.N,DB6*%
X60967000Y-108396000D03*
%TO.P,P2,a8,Pin_a8*%
%TO.N,DB7*%
X63507000Y-108396000D03*
%TO.P,P2,a9,Pin_a9*%
%TO.N,DBP*%
X66047000Y-108396000D03*
%TO.P,P2,a10,Pin_a10*%
%TO.N,ATN*%
X68587000Y-108396000D03*
%TO.P,P2,a11,Pin_a11*%
%TO.N,BSY*%
X71127000Y-108396000D03*
%TO.P,P2,a12,Pin_a12*%
%TO.N,ACK*%
X73667000Y-108396000D03*
%TO.P,P2,a13,Pin_a13*%
%TO.N,RST*%
X76207000Y-108396000D03*
%TO.P,P2,a14,Pin_a14*%
%TO.N,MSG*%
X78747000Y-108396000D03*
%TO.P,P2,a15,Pin_a15*%
%TO.N,SEL*%
X81287000Y-108396000D03*
%TO.P,P2,a16,Pin_a16*%
%TO.N,D{slash}C*%
X83827000Y-108396000D03*
%TO.P,P2,a17,Pin_a17*%
%TO.N,REQ*%
X86367000Y-108396000D03*
%TO.P,P2,a18,Pin_a18*%
%TO.N,O{slash}I*%
X88907000Y-108396000D03*
%TO.P,P2,a19,Pin_a19*%
%TO.N,TXD3*%
X91447000Y-108396000D03*
%TO.P,P2,a20,Pin_a20*%
%TO.N,RXD3*%
X93987000Y-108396000D03*
%TO.P,P2,a21,Pin_a21*%
%TO.N,RTS3*%
X96527000Y-108396000D03*
%TO.P,P2,a22,Pin_a22*%
%TO.N,CTS3*%
X99067000Y-108396000D03*
%TO.P,P2,a23,Pin_a23*%
%TO.N,DTR3*%
X101607000Y-108396000D03*
%TO.P,P2,a24,Pin_a24*%
%TO.N,DCD3*%
X104147000Y-108396000D03*
%TO.P,P2,a25,Pin_a25*%
%TO.N,TXD4*%
X106687000Y-108396000D03*
%TO.P,P2,a26,Pin_a26*%
%TO.N,RXD4*%
X109227000Y-108396000D03*
%TO.P,P2,a27,Pin_a27*%
%TO.N,RTS4*%
X111767000Y-108396000D03*
%TO.P,P2,a28,Pin_a28*%
%TO.N,TRXC4*%
X114307000Y-108396000D03*
%TO.P,P2,a29,Pin_a29*%
%TO.N,CTS4*%
X116847000Y-108396000D03*
%TO.P,P2,a30,Pin_a30*%
%TO.N,DTR4*%
X119387000Y-108396000D03*
%TO.P,P2,a31,Pin_a31*%
%TO.N,DCD4*%
X121927000Y-108396000D03*
%TO.P,P2,a32,Pin_a32*%
%TO.N,RTXC4*%
X124467000Y-108396000D03*
%TO.P,P2,b1,Pin_b1*%
%TO.N,VCC*%
X45727000Y-105856000D03*
%TO.P,P2,b2,Pin_b2*%
%TO.N,GND*%
X48267000Y-105856000D03*
%TO.P,P2,b3,Pin_b3*%
%TO.N,unconnected-(P2B-Pin_b3-Padb3)*%
X50807000Y-105856000D03*
%TO.P,P2,b4,Pin_b4*%
%TO.N,unconnected-(P2B-Pin_b4-Padb4)*%
X53347000Y-105856000D03*
%TO.P,P2,b5,Pin_b5*%
%TO.N,unconnected-(P2B-Pin_b5-Padb5)*%
X55887000Y-105856000D03*
%TO.P,P2,b6,Pin_b6*%
%TO.N,unconnected-(P2B-Pin_b6-Padb6)*%
X58427000Y-105856000D03*
%TO.P,P2,b7,Pin_b7*%
%TO.N,unconnected-(P2B-Pin_b7-Padb7)*%
X60967000Y-105856000D03*
%TO.P,P2,b8,Pin_b8*%
%TO.N,unconnected-(P2B-Pin_b8-Padb8)*%
X63507000Y-105856000D03*
%TO.P,P2,b9,Pin_b9*%
%TO.N,unconnected-(P2B-Pin_b9-Padb9)*%
X66047000Y-105856000D03*
%TO.P,P2,b10,Pin_b10*%
%TO.N,unconnected-(P2B-Pin_b10-Padb10)*%
X68587000Y-105856000D03*
%TO.P,P2,b11,Pin_b11*%
%TO.N,unconnected-(P2B-Pin_b11-Padb11)*%
X71127000Y-105856000D03*
%TO.P,P2,b12,Pin_b12*%
%TO.N,GND*%
X73667000Y-105856000D03*
%TO.P,P2,b13,Pin_b13*%
%TO.N,VCC*%
X76207000Y-105856000D03*
%TO.P,P2,b14,Pin_b14*%
%TO.N,unconnected-(P2B-Pin_b14-Padb14)*%
X78747000Y-105856000D03*
%TO.P,P2,b15,Pin_b15*%
%TO.N,unconnected-(P2B-Pin_b15-Padb15)*%
X81287000Y-105856000D03*
%TO.P,P2,b16,Pin_b16*%
%TO.N,unconnected-(P2B-Pin_b16-Padb16)*%
X83827000Y-105856000D03*
%TO.P,P2,b17,Pin_b17*%
%TO.N,unconnected-(P2B-Pin_b17-Padb17)*%
X86367000Y-105856000D03*
%TO.P,P2,b18,Pin_b18*%
%TO.N,unconnected-(P2B-Pin_b18-Padb18)*%
X88907000Y-105856000D03*
%TO.P,P2,b19,Pin_b19*%
%TO.N,unconnected-(P2B-Pin_b19-Padb19)*%
X91447000Y-105856000D03*
%TO.P,P2,b20,Pin_b20*%
%TO.N,unconnected-(P2B-Pin_b20-Padb20)*%
X93987000Y-105856000D03*
%TO.P,P2,b21,Pin_b21*%
%TO.N,unconnected-(P2B-Pin_b21-Padb21)*%
X96527000Y-105856000D03*
%TO.P,P2,b22,Pin_b22*%
%TO.N,GND*%
X99067000Y-105856000D03*
%TO.P,P2,b23,Pin_b23*%
%TO.N,unconnected-(P2B-Pin_b23-Padb23)*%
X101607000Y-105856000D03*
%TO.P,P2,b24,Pin_b24*%
%TO.N,unconnected-(P2B-Pin_b24-Padb24)*%
X104147000Y-105856000D03*
%TO.P,P2,b25,Pin_b25*%
%TO.N,unconnected-(P2B-Pin_b25-Padb25)*%
X106687000Y-105856000D03*
%TO.P,P2,b26,Pin_b26*%
%TO.N,unconnected-(P2B-Pin_b26-Padb26)*%
X109227000Y-105856000D03*
%TO.P,P2,b27,Pin_b27*%
%TO.N,unconnected-(P2B-Pin_b27-Padb27)*%
X111767000Y-105856000D03*
%TO.P,P2,b28,Pin_b28*%
%TO.N,unconnected-(P2B-Pin_b28-Padb28)*%
X114307000Y-105856000D03*
%TO.P,P2,b29,Pin_b29*%
%TO.N,unconnected-(P2B-Pin_b29-Padb29)*%
X116847000Y-105856000D03*
%TO.P,P2,b30,Pin_b30*%
%TO.N,unconnected-(P2B-Pin_b30-Padb30)*%
X119387000Y-105856000D03*
%TO.P,P2,b31,Pin_b31*%
%TO.N,GND*%
X121927000Y-105856000D03*
%TO.P,P2,b32,Pin_b32*%
%TO.N,VCC*%
X124467000Y-105856000D03*
%TO.P,P2,c1,Pin_c1*%
%TO.N,C-*%
X45727000Y-103316000D03*
%TO.P,P2,c2,Pin_c2*%
%TO.N,C+*%
X48267000Y-103316000D03*
%TO.P,P2,c3,Pin_c3*%
%TO.N,T-*%
X50807000Y-103316000D03*
%TO.P,P2,c4,Pin_c4*%
%TO.N,T+*%
X53347000Y-103316000D03*
%TO.P,P2,c5,Pin_c5*%
%TO.N,R-*%
X55887000Y-103316000D03*
%TO.P,P2,c6,Pin_c6*%
%TO.N,R+*%
X58427000Y-103316000D03*
%TO.P,P2,c7,Pin_c7*%
%TO.N,+12VF*%
X60967000Y-103316000D03*
%TO.P,P2,c8,Pin_c8*%
%TO.N,PRSTB*%
X63507000Y-103316000D03*
%TO.P,P2,c9,Pin_c9*%
%TO.N,PRD0*%
X66047000Y-103316000D03*
%TO.P,P2,c10,Pin_c10*%
%TO.N,PRD1*%
X68587000Y-103316000D03*
%TO.P,P2,c11,Pin_c11*%
%TO.N,PRD2*%
X71127000Y-103316000D03*
%TO.P,P2,c12,Pin_c12*%
%TO.N,PRD3*%
X73667000Y-103316000D03*
%TO.P,P2,c13,Pin_c13*%
%TO.N,PRD4*%
X76207000Y-103316000D03*
%TO.P,P2,c14,Pin_c14*%
%TO.N,PRD5*%
X78747000Y-103316000D03*
%TO.P,P2,c15,Pin_c15*%
%TO.N,PRD6*%
X81287000Y-103316000D03*
%TO.P,P2,c16,Pin_c16*%
%TO.N,PRD7*%
X83827000Y-103316000D03*
%TO.P,P2,c17,Pin_c17*%
%TO.N,PRACK*%
X86367000Y-103316000D03*
%TO.P,P2,c18,Pin_c18*%
%TO.N,PRBSY*%
X88907000Y-103316000D03*
%TO.P,P2,c19,Pin_c19*%
%TO.N,PRPE*%
X91447000Y-103316000D03*
%TO.P,P2,c20,Pin_c20*%
%TO.N,PRSEL*%
X93987000Y-103316000D03*
%TO.P,P2,c21,Pin_c21*%
%TO.N,INPRIME*%
X96527000Y-103316000D03*
%TO.P,P2,c22,Pin_c22*%
%TO.N,PRFAULT*%
X99067000Y-103316000D03*
%TO.P,P2,c23,Pin_c23*%
%TO.N,TXD1*%
X101607000Y-103316000D03*
%TO.P,P2,c24,Pin_c24*%
%TO.N,RXD1*%
X104147000Y-103316000D03*
%TO.P,P2,c25,Pin_c25*%
%TO.N,RTS1*%
X106687000Y-103316000D03*
%TO.P,P2,c26,Pin_c26*%
%TO.N,CTS1*%
X109227000Y-103316000D03*
%TO.P,P2,c27,Pin_c27*%
%TO.N,TXD2*%
X111767000Y-103316000D03*
%TO.P,P2,c28,Pin_c28*%
%TO.N,RXD2*%
X114307000Y-103316000D03*
%TO.P,P2,c29,Pin_c29*%
%TO.N,RTS2*%
X116847000Y-103316000D03*
%TO.P,P2,c30,Pin_c30*%
%TO.N,CTS2*%
X119387000Y-103316000D03*
%TO.P,P2,c31,Pin_c31*%
%TO.N,DTR2*%
X121927000Y-103316000D03*
%TO.P,P2,c32,Pin_c32*%
%TO.N,DCD2*%
X124467000Y-103316000D03*
%TD*%
D19*
%TO.P,J2,a1,Pin_a1*%
%TO.N,C-*%
X45630000Y-39260000D03*
D18*
%TO.P,J2,a2,Pin_a2*%
%TO.N,T-*%
X48170000Y-39260000D03*
%TO.P,J2,a3,Pin_a3*%
%TO.N,R-*%
X50710000Y-39260000D03*
%TO.P,J2,a4,Pin_a4*%
%TO.N,+12VF*%
X53250000Y-39260000D03*
%TO.P,J2,a5,Pin_a5*%
%TO.N,GND*%
X55790000Y-39260000D03*
%TO.P,J2,a6,Pin_a6*%
%TO.N,PRD1*%
X58330000Y-39260000D03*
%TO.P,J2,a7,Pin_a7*%
%TO.N,PRD3*%
X60870000Y-39260000D03*
%TO.P,J2,a8,Pin_a8*%
%TO.N,PRD5*%
X63410000Y-39260000D03*
%TO.P,J2,a9,Pin_a9*%
%TO.N,PRD7*%
X65950000Y-39260000D03*
%TO.P,J2,a10,Pin_a10*%
%TO.N,PRACK*%
X68490000Y-39260000D03*
%TO.P,J2,a11,Pin_a11*%
%TO.N,PRBSY*%
X71030000Y-39260000D03*
%TO.P,J2,a12,Pin_a12*%
%TO.N,PRSEL*%
X73570000Y-39260000D03*
%TO.P,J2,a13,Pin_a13*%
%TO.N,PRFAULT*%
X76110000Y-39260000D03*
%TO.P,J2,a14,Pin_a14*%
%TO.N,TXD3*%
X78650000Y-39260000D03*
%TO.P,J2,a15,Pin_a15*%
%TO.N,RXD3*%
X81190000Y-39260000D03*
%TO.P,J2,a16,Pin_a16*%
%TO.N,RTS3*%
X83730000Y-39260000D03*
%TO.P,J2,a17,Pin_a17*%
%TO.N,DTR3*%
X86270000Y-39260000D03*
%TO.P,J2,a18,Pin_a18*%
%TO.N,GND*%
X88810000Y-39260000D03*
%TO.P,J2,a19,Pin_a19*%
X91350000Y-39260000D03*
%TO.P,J2,a20,Pin_a20*%
X93890000Y-39260000D03*
%TO.P,J2,a21,Pin_a21*%
%TO.N,CTS1*%
X96430000Y-39260000D03*
%TO.P,J2,a22,Pin_a22*%
%TO.N,TXD4*%
X98970000Y-39260000D03*
%TO.P,J2,a23,Pin_a23*%
%TO.N,RXD4*%
X101510000Y-39260000D03*
%TO.P,J2,a24,Pin_a24*%
%TO.N,RTS4*%
X104050000Y-39260000D03*
%TO.P,J2,a25,Pin_a25*%
%TO.N,TRXC4*%
X106590000Y-39260000D03*
%TO.P,J2,a26,Pin_a26*%
%TO.N,CTS4*%
X109130000Y-39260000D03*
%TO.P,J2,a27,Pin_a27*%
%TO.N,DCD4*%
X111670000Y-39260000D03*
%TO.P,J2,a28,Pin_a28*%
%TO.N,RTXC4*%
X114210000Y-39260000D03*
%TO.P,J2,a29,Pin_a29*%
%TO.N,TXD2*%
X116750000Y-39260000D03*
%TO.P,J2,a30,Pin_a30*%
%TO.N,RXD2*%
X119290000Y-39260000D03*
%TO.P,J2,a31,Pin_a31*%
%TO.N,RTS2*%
X121830000Y-39260000D03*
%TO.P,J2,a32,Pin_a32*%
%TO.N,DTR2*%
X124370000Y-39260000D03*
%TO.P,J2,b1,Pin_b1*%
%TO.N,unconnected-(J2B-Pin_b1-Padb1)*%
X45630000Y-41800000D03*
%TO.P,J2,b2,Pin_b2*%
%TO.N,unconnected-(J2B-Pin_b2-Padb2)*%
X48170000Y-41800000D03*
%TO.P,J2,b3,Pin_b3*%
%TO.N,unconnected-(J2B-Pin_b3-Padb3)*%
X50710000Y-41800000D03*
%TO.P,J2,b4,Pin_b4*%
%TO.N,unconnected-(J2B-Pin_b4-Padb4)*%
X53250000Y-41800000D03*
%TO.P,J2,b5,Pin_b5*%
%TO.N,unconnected-(J2B-Pin_b5-Padb5)*%
X55790000Y-41800000D03*
%TO.P,J2,b6,Pin_b6*%
%TO.N,unconnected-(J2B-Pin_b6-Padb6)*%
X58330000Y-41800000D03*
%TO.P,J2,b7,Pin_b7*%
%TO.N,unconnected-(J2B-Pin_b7-Padb7)*%
X60870000Y-41800000D03*
%TO.P,J2,b8,Pin_b8*%
%TO.N,unconnected-(J2B-Pin_b8-Padb8)*%
X63410000Y-41800000D03*
%TO.P,J2,b9,Pin_b9*%
%TO.N,unconnected-(J2B-Pin_b9-Padb9)*%
X65950000Y-41800000D03*
%TO.P,J2,b10,Pin_b10*%
%TO.N,unconnected-(J2B-Pin_b10-Padb10)*%
X68490000Y-41800000D03*
%TO.P,J2,b11,Pin_b11*%
%TO.N,unconnected-(J2B-Pin_b11-Padb11)*%
X71030000Y-41800000D03*
%TO.P,J2,b12,Pin_b12*%
%TO.N,unconnected-(J2B-Pin_b12-Padb12)*%
X73570000Y-41800000D03*
%TO.P,J2,b13,Pin_b13*%
%TO.N,unconnected-(J2B-Pin_b13-Padb13)*%
X76110000Y-41800000D03*
%TO.P,J2,b14,Pin_b14*%
%TO.N,unconnected-(J2B-Pin_b14-Padb14)*%
X78650000Y-41800000D03*
%TO.P,J2,b15,Pin_b15*%
%TO.N,unconnected-(J2B-Pin_b15-Padb15)*%
X81190000Y-41800000D03*
%TO.P,J2,b16,Pin_b16*%
%TO.N,unconnected-(J2B-Pin_b16-Padb16)*%
X83730000Y-41800000D03*
%TO.P,J2,b17,Pin_b17*%
%TO.N,unconnected-(J2B-Pin_b17-Padb17)*%
X86270000Y-41800000D03*
%TO.P,J2,b18,Pin_b18*%
%TO.N,unconnected-(J2B-Pin_b18-Padb18)*%
X88810000Y-41800000D03*
%TO.P,J2,b19,Pin_b19*%
%TO.N,unconnected-(J2B-Pin_b19-Padb19)*%
X91350000Y-41800000D03*
%TO.P,J2,b20,Pin_b20*%
%TO.N,unconnected-(J2B-Pin_b20-Padb20)*%
X93890000Y-41800000D03*
%TO.P,J2,b21,Pin_b21*%
%TO.N,unconnected-(J2B-Pin_b21-Padb21)*%
X96430000Y-41800000D03*
%TO.P,J2,b22,Pin_b22*%
%TO.N,unconnected-(J2B-Pin_b22-Padb22)*%
X98970000Y-41800000D03*
%TO.P,J2,b23,Pin_b23*%
%TO.N,unconnected-(J2B-Pin_b23-Padb23)*%
X101510000Y-41800000D03*
%TO.P,J2,b24,Pin_b24*%
%TO.N,unconnected-(J2B-Pin_b24-Padb24)*%
X104050000Y-41800000D03*
%TO.P,J2,b25,Pin_b25*%
%TO.N,unconnected-(J2B-Pin_b25-Padb25)*%
X106590000Y-41800000D03*
%TO.P,J2,b26,Pin_b26*%
%TO.N,unconnected-(J2B-Pin_b26-Padb26)*%
X109130000Y-41800000D03*
%TO.P,J2,b27,Pin_b27*%
%TO.N,unconnected-(J2B-Pin_b27-Padb27)*%
X111670000Y-41800000D03*
%TO.P,J2,b28,Pin_b28*%
%TO.N,unconnected-(J2B-Pin_b28-Padb28)*%
X114210000Y-41800000D03*
%TO.P,J2,b29,Pin_b29*%
%TO.N,unconnected-(J2B-Pin_b29-Padb29)*%
X116750000Y-41800000D03*
%TO.P,J2,b30,Pin_b30*%
%TO.N,unconnected-(J2B-Pin_b30-Padb30)*%
X119290000Y-41800000D03*
%TO.P,J2,b31,Pin_b31*%
%TO.N,unconnected-(J2B-Pin_b31-Padb31)*%
X121830000Y-41800000D03*
%TO.P,J2,b32,Pin_b32*%
%TO.N,unconnected-(J2B-Pin_b32-Padb32)*%
X124370000Y-41800000D03*
%TO.P,J2,c1,Pin_c1*%
%TO.N,C+*%
X45630000Y-44340000D03*
%TO.P,J2,c2,Pin_c2*%
%TO.N,T+*%
X48170000Y-44340000D03*
%TO.P,J2,c3,Pin_c3*%
%TO.N,R+*%
X50710000Y-44340000D03*
%TO.P,J2,c4,Pin_c4*%
%TO.N,PRSTB*%
X53250000Y-44340000D03*
%TO.P,J2,c5,Pin_c5*%
%TO.N,PRD0*%
X55790000Y-44340000D03*
%TO.P,J2,c6,Pin_c6*%
%TO.N,PRD2*%
X58330000Y-44340000D03*
%TO.P,J2,c7,Pin_c7*%
%TO.N,PRD4*%
X60870000Y-44340000D03*
%TO.P,J2,c8,Pin_c8*%
%TO.N,PRD6*%
X63410000Y-44340000D03*
%TO.P,J2,c9,Pin_c9*%
%TO.N,GND*%
X65950000Y-44340000D03*
%TO.P,J2,c10,Pin_c10*%
X68490000Y-44340000D03*
%TO.P,J2,c11,Pin_c11*%
%TO.N,PRPE*%
X71030000Y-44340000D03*
%TO.P,J2,c12,Pin_c12*%
%TO.N,INPRIME*%
X73570000Y-44340000D03*
%TO.P,J2,c13,Pin_c13*%
%TO.N,GND*%
X76110000Y-44340000D03*
%TO.P,J2,c14,Pin_c14*%
X78650000Y-44340000D03*
%TO.P,J2,c15,Pin_c15*%
X81190000Y-44340000D03*
%TO.P,J2,c16,Pin_c16*%
%TO.N,CTS3*%
X83730000Y-44340000D03*
%TO.P,J2,c17,Pin_c17*%
%TO.N,DCD3*%
X86270000Y-44340000D03*
%TO.P,J2,c18,Pin_c18*%
%TO.N,TXD1*%
X88810000Y-44340000D03*
%TO.P,J2,c19,Pin_c19*%
%TO.N,RXD1*%
X91350000Y-44340000D03*
%TO.P,J2,c20,Pin_c20*%
%TO.N,RTS1*%
X93890000Y-44340000D03*
%TO.P,J2,c21,Pin_c21*%
%TO.N,GND*%
X96430000Y-44340000D03*
%TO.P,J2,c22,Pin_c22*%
X98970000Y-44340000D03*
%TO.P,J2,c23,Pin_c23*%
X101510000Y-44340000D03*
%TO.P,J2,c24,Pin_c24*%
X104050000Y-44340000D03*
%TO.P,J2,c25,Pin_c25*%
X106590000Y-44340000D03*
%TO.P,J2,c26,Pin_c26*%
%TO.N,DTR4*%
X109130000Y-44340000D03*
%TO.P,J2,c27,Pin_c27*%
%TO.N,GND*%
X111670000Y-44340000D03*
%TO.P,J2,c28,Pin_c28*%
X114210000Y-44340000D03*
%TO.P,J2,c29,Pin_c29*%
X116750000Y-44340000D03*
%TO.P,J2,c30,Pin_c30*%
X119290000Y-44340000D03*
%TO.P,J2,c31,Pin_c31*%
%TO.N,CTS2*%
X121830000Y-44340000D03*
%TO.P,J2,c32,Pin_c32*%
%TO.N,DCD2*%
X124370000Y-44340000D03*
%TD*%
D20*
%TO.N,TERMPWR*%
X89500000Y-70000000D03*
X84175400Y-63000000D03*
%TO.N,INPRIME*%
X84211100Y-48266000D03*
%TO.N,CTS3*%
X100179800Y-110092500D03*
X119306200Y-49058600D03*
%TO.N,DCD4*%
X126500000Y-43000000D03*
%TO.N,TXD2*%
X115250000Y-101250000D03*
%TO.N,RXD1*%
X125373500Y-48266000D03*
X124000000Y-100500000D03*
%TO.N,CTS1*%
X125500000Y-37500000D03*
X125397700Y-101394500D03*
%TO.N,RTS1*%
X104000000Y-78000000D03*
X100522500Y-62979700D03*
X97305000Y-55000000D03*
%TO.N,PRD5*%
X70130200Y-63369800D03*
%TO.N,DCD3*%
X99500000Y-101000000D03*
%TO.N,CTS4*%
X122770000Y-46164900D03*
%TO.N,RTXC4*%
X128719500Y-46365600D03*
%TO.N,PRFAULT*%
X79805200Y-54206800D03*
X102155300Y-101000000D03*
X94846000Y-63118000D03*
%TO.N,PRPE*%
X73974700Y-55000000D03*
X89000000Y-101000000D03*
X78629100Y-62974700D03*
%TO.N,DTR4*%
X115000000Y-47473400D03*
X121557400Y-47473400D03*
%TO.N,PRSEL*%
X96603100Y-98490200D03*
X78690200Y-55067700D03*
X92621900Y-100608300D03*
X89545600Y-63118000D03*
%TO.N,TXD1*%
X96092200Y-75108600D03*
%TO.N,PRD2*%
X55123400Y-98762800D03*
X51179000Y-48266000D03*
%TO.N,PRSTB*%
X61245500Y-99555400D03*
X59162700Y-66088400D03*
X52331300Y-66088400D03*
%TO.N,RTS4*%
X106830100Y-74147200D03*
X105500000Y-53500000D03*
%TO.N,DB3*%
X59948600Y-63500000D03*
%TO.N,ACK*%
X90729900Y-95126200D03*
X72357100Y-104642900D03*
%TO.N,MSG*%
X80509500Y-100673500D03*
X105862600Y-63000000D03*
X105702800Y-96208300D03*
%TO.N,DB7*%
X66323500Y-74999600D03*
X67514600Y-100835400D03*
%TO.N,ATN*%
X68582500Y-75792200D03*
%TO.N,DB1*%
X57110000Y-101272600D03*
%TO.N,DB2*%
X58237000Y-63500000D03*
X44086400Y-72029200D03*
%TO.N,O{slash}I*%
X115650000Y-99000000D03*
%TO.N,BSY*%
X89726400Y-95936800D03*
%TO.N,REQ*%
X113504900Y-99349500D03*
%TO.N,DBP*%
X86327100Y-95531500D03*
%TO.N,D{slash}C*%
X87706700Y-75435200D03*
%TO.N,DB5*%
X64910800Y-63118000D03*
X66644700Y-100921400D03*
%TO.N,DB6*%
X75790300Y-64318700D03*
X67811100Y-73900300D03*
%TO.N,DB0*%
X46209200Y-74999600D03*
%TO.N,RST*%
X104896700Y-97711700D03*
%TO.N,DB4*%
X62907300Y-70355100D03*
X63902000Y-100717000D03*
%TO.N,SEL*%
X113389100Y-97870200D03*
X82542838Y-101205051D03*
%TD*%
D21*
%TO.N,TERMPWR*%
X84520000Y-57960000D02*
X85671700Y-59111700D01*
X115341500Y-77350000D02*
X103730761Y-77350000D01*
X87082700Y-75662000D02*
X87082700Y-74513500D01*
X89004600Y-70000000D02*
X89500000Y-70000000D01*
X103730761Y-77350000D02*
X102433161Y-78647600D01*
X85671700Y-61097900D02*
X84444200Y-62325400D01*
X85671700Y-59111700D02*
X85671700Y-61097900D01*
X90068300Y-78647600D02*
X87082700Y-75662000D01*
X102433161Y-78647600D02*
X90068300Y-78647600D01*
X119887500Y-82412500D02*
X119100000Y-83200000D01*
X84444200Y-62325400D02*
X84444200Y-62731200D01*
X119887500Y-81896000D02*
X115341500Y-77350000D01*
X84444200Y-62731200D02*
X84175400Y-63000000D01*
X119887500Y-81896000D02*
X119887500Y-82412500D01*
X87082700Y-74513500D02*
X87778600Y-73817600D01*
X87778600Y-73817600D02*
X87778600Y-71226000D01*
X87778600Y-71226000D02*
X89004600Y-70000000D01*
%TO.N,DPWR*%
X109500000Y-82000000D02*
X113808500Y-82000000D01*
%TO.N,INPRIME*%
X77496000Y-48266000D02*
X84211100Y-48266000D01*
X73570000Y-44340000D02*
X77496000Y-48266000D01*
%TO.N,CTS3*%
X100179800Y-110092500D02*
X100179800Y-109508800D01*
X100179800Y-109508800D02*
X99067000Y-108396000D01*
X119306200Y-49058600D02*
X114053000Y-49058600D01*
X111860000Y-46865600D02*
X86255600Y-46865600D01*
X114053000Y-49058600D02*
X111860000Y-46865600D01*
X86255600Y-46865600D02*
X83730000Y-44340000D01*
%TO.N,DCD4*%
X119796400Y-40710100D02*
X116608900Y-40710100D01*
X125826400Y-42878100D02*
X121316000Y-42878100D01*
X125948300Y-43000000D02*
X125826400Y-42878100D01*
X115480000Y-39581200D02*
X115480000Y-38964700D01*
X120560000Y-42122100D02*
X120560000Y-41473700D01*
X120560000Y-41473700D02*
X119796400Y-40710100D01*
X116608900Y-40710100D02*
X115480000Y-39581200D01*
X112746700Y-38183300D02*
X111670000Y-39260000D01*
X121316000Y-42878100D02*
X120560000Y-42122100D01*
X114698600Y-38183300D02*
X112746700Y-38183300D01*
X115480000Y-38964700D02*
X114698600Y-38183300D01*
X126500000Y-43000000D02*
X125948300Y-43000000D01*
%TO.N,TXD2*%
X113065300Y-102017700D02*
X114482300Y-102017700D01*
X111767000Y-103316000D02*
X113065300Y-102017700D01*
X114482300Y-102017700D02*
X115250000Y-101250000D01*
%TO.N,RXD1*%
X110400000Y-44017900D02*
X109645400Y-43263300D01*
X92426700Y-43263300D02*
X91350000Y-44340000D01*
X100117300Y-43263300D02*
X92426700Y-43263300D01*
X100157900Y-43303900D02*
X100117300Y-43263300D01*
X120851000Y-103649000D02*
X120851000Y-102870306D01*
X120851000Y-102870306D02*
X121481306Y-102240000D01*
X121481306Y-102240000D02*
X122260000Y-102240000D01*
X125373500Y-48266000D02*
X114023400Y-48266000D01*
X122260000Y-102240000D02*
X124000000Y-100500000D01*
X100656200Y-43303900D02*
X100157900Y-43303900D01*
X105587200Y-104756200D02*
X119743800Y-104756200D01*
X119743800Y-104756200D02*
X120851000Y-103649000D01*
X104147000Y-103316000D02*
X105587200Y-104756200D01*
X110400000Y-44642600D02*
X110400000Y-44017900D01*
X100696800Y-43263300D02*
X100656200Y-43303900D01*
X109645400Y-43263300D02*
X100696800Y-43263300D01*
X114023400Y-48266000D02*
X110400000Y-44642600D01*
%TO.N,CTS1*%
X115730761Y-99850000D02*
X116269239Y-99850000D01*
X116269239Y-99850000D02*
X117813739Y-101394500D01*
X111148500Y-101394500D02*
X114186261Y-101394500D01*
X125500000Y-37500000D02*
X124613100Y-37500000D01*
X122186261Y-101394500D02*
X123730761Y-99850000D01*
X117813739Y-101394500D02*
X122186261Y-101394500D01*
X124381300Y-37731800D02*
X97958200Y-37731800D01*
X124269239Y-99850000D02*
X124650000Y-100230761D01*
X124613100Y-37500000D02*
X124381300Y-37731800D01*
X97958200Y-37731800D02*
X96430000Y-39260000D01*
X123730761Y-99850000D02*
X124269239Y-99850000D01*
X124650000Y-100230761D02*
X124650000Y-100769239D01*
X125275261Y-101394500D02*
X125397700Y-101394500D01*
X109227000Y-103316000D02*
X111148500Y-101394500D01*
X124650000Y-100769239D02*
X125275261Y-101394500D01*
X114186261Y-101394500D02*
X115730761Y-99850000D01*
%TO.N,RTS1*%
X100949300Y-62552900D02*
X100949300Y-57469600D01*
X109101000Y-83101000D02*
X108714840Y-83101000D01*
X126500000Y-82500000D02*
X124000000Y-85000000D01*
X124000000Y-85000000D02*
X111000000Y-85000000D01*
X98479700Y-55000000D02*
X97305000Y-55000000D01*
X100949300Y-57469600D02*
X98479700Y-55000000D01*
X111000000Y-85000000D02*
X109101000Y-83101000D01*
X100522500Y-62979700D02*
X100949300Y-62552900D01*
X104000000Y-78386160D02*
X104000000Y-78000000D01*
X108714840Y-83101000D02*
X104000000Y-78386160D01*
%TO.N,PRD5*%
X67891700Y-60854200D02*
X69075300Y-62037800D01*
X69075300Y-62314900D02*
X70130200Y-63369800D01*
X64862600Y-54453800D02*
X67891700Y-57482900D01*
X67891700Y-57482900D02*
X67891700Y-60854200D01*
X69075300Y-62037800D02*
X69075300Y-62314900D01*
X64862600Y-40712600D02*
X64862600Y-54453800D01*
X63410000Y-39260000D02*
X64862600Y-40712600D01*
%TO.N,DCD3*%
X97961500Y-106368400D02*
X97961500Y-102110500D01*
X102877000Y-107126000D02*
X98719100Y-107126000D01*
X97961500Y-102110500D02*
X99072000Y-101000000D01*
X99072000Y-101000000D02*
X99500000Y-101000000D01*
X98719100Y-107126000D02*
X97961500Y-106368400D01*
X104147000Y-108396000D02*
X102877000Y-107126000D01*
%TO.N,CTS4*%
X112746700Y-41884300D02*
X113932200Y-43069800D01*
X115673300Y-44237300D02*
X115673300Y-44819500D01*
X112746700Y-41289000D02*
X112746700Y-41884300D01*
X111794400Y-40336700D02*
X112746700Y-41289000D01*
X113932200Y-43069800D02*
X114505800Y-43069800D01*
X117018700Y-46164900D02*
X122770000Y-46164900D01*
X115673300Y-44819500D02*
X117018700Y-46164900D01*
X110206700Y-40336700D02*
X111794400Y-40336700D01*
X109130000Y-39260000D02*
X110206700Y-40336700D01*
X114505800Y-43069800D02*
X115673300Y-44237300D01*
%TO.N,RTXC4*%
X120701600Y-44188400D02*
X119583200Y-43070000D01*
X115619300Y-42220200D02*
X115619300Y-40669300D01*
X121364700Y-45449000D02*
X120701600Y-44785900D01*
X116469100Y-43070000D02*
X115619300Y-42220200D01*
X128719500Y-46365600D02*
X126759700Y-46365600D01*
X125843100Y-45449000D02*
X121364700Y-45449000D01*
X126759700Y-46365600D02*
X125843100Y-45449000D01*
X119583200Y-43070000D02*
X116469100Y-43070000D01*
X120701600Y-44785900D02*
X120701600Y-44188400D01*
X115619300Y-40669300D02*
X114210000Y-39260000D01*
%TO.N,PRFAULT*%
X93410000Y-57557300D02*
X90059500Y-54206800D01*
X93410000Y-61682000D02*
X93410000Y-57557300D01*
X100742300Y-101640700D02*
X101514600Y-101640700D01*
X90059500Y-54206800D02*
X79805200Y-54206800D01*
X94846000Y-63118000D02*
X93410000Y-61682000D01*
X99067000Y-103316000D02*
X100742300Y-101640700D01*
X101514600Y-101640700D02*
X102155300Y-101000000D01*
%TO.N,PRPE*%
X78051700Y-62397300D02*
X78051700Y-57469600D01*
X78629100Y-62974700D02*
X78051700Y-62397300D01*
X91447000Y-103316000D02*
X89131000Y-101000000D01*
X75582100Y-55000000D02*
X73974700Y-55000000D01*
X89131000Y-101000000D02*
X89000000Y-101000000D01*
X78051700Y-57469600D02*
X75582100Y-55000000D01*
%TO.N,DTR4*%
X121557400Y-47473400D02*
X115000000Y-47473400D01*
%TO.N,PRSEL*%
X94485000Y-100608300D02*
X96603100Y-98490200D01*
X89545600Y-63118000D02*
X84976639Y-63118000D01*
X83374161Y-63118000D02*
X82962000Y-63118000D01*
X80710000Y-60866000D02*
X80710000Y-57087500D01*
X83906161Y-63650000D02*
X83374161Y-63118000D01*
X80710000Y-57087500D02*
X78690200Y-55067700D01*
X84976639Y-63118000D02*
X84444639Y-63650000D01*
X92621900Y-100608300D02*
X94485000Y-100608300D01*
X84444639Y-63650000D02*
X83906161Y-63650000D01*
X82962000Y-63118000D02*
X80710000Y-60866000D01*
%TO.N,TXD1*%
X96320800Y-74880000D02*
X96092200Y-75108600D01*
X126500000Y-74880000D02*
X96320800Y-74880000D01*
%TO.N,PRD2*%
X51179000Y-48266000D02*
X54404000Y-48266000D01*
X66573800Y-98762800D02*
X71127000Y-103316000D01*
X54404000Y-48266000D02*
X58330000Y-44340000D01*
X55123400Y-98762800D02*
X66573800Y-98762800D01*
%TO.N,PRSTB*%
X63594300Y-99555400D02*
X61245500Y-99555400D01*
X63507000Y-103316000D02*
X64513100Y-102309900D01*
X64513100Y-102309900D02*
X64513100Y-100474200D01*
X64513100Y-100474200D02*
X63594300Y-99555400D01*
X59162700Y-66088400D02*
X52331300Y-66088400D01*
%TO.N,RTS4*%
X115767000Y-71024500D02*
X115767000Y-72321800D01*
X117732700Y-54862200D02*
X117732700Y-69058800D01*
X105500000Y-53500000D02*
X116370500Y-53500000D01*
X116370500Y-53500000D02*
X117732700Y-54862200D01*
X113941600Y-74147200D02*
X106830100Y-74147200D01*
X115767000Y-72321800D02*
X113941600Y-74147200D01*
X117732700Y-69058800D02*
X115767000Y-71024500D01*
%TO.N,DB3*%
X60390000Y-59230000D02*
X60390000Y-63058600D01*
X60390000Y-63058600D02*
X59948600Y-63500000D01*
X61660000Y-57960000D02*
X60390000Y-59230000D01*
%TO.N,ACK*%
X80496800Y-94889900D02*
X72357100Y-103029600D01*
X98490000Y-64957000D02*
X91447000Y-72000000D01*
X99760000Y-57960000D02*
X98490000Y-59230000D01*
X90493600Y-94889900D02*
X80496800Y-94889900D01*
X72357100Y-103029600D02*
X72357100Y-104642900D01*
X98490000Y-59230000D02*
X98490000Y-64957000D01*
X90729900Y-95126200D02*
X90493600Y-94889900D01*
%TO.N,MSG*%
X84474800Y-96708200D02*
X105202900Y-96708200D01*
X105202900Y-96708200D02*
X105702800Y-96208300D01*
X104840000Y-57960000D02*
X106048100Y-59168100D01*
X106048100Y-62814500D02*
X105862600Y-63000000D01*
X106048100Y-59168100D02*
X106048100Y-62814500D01*
X80509500Y-100673500D02*
X84474800Y-96708200D01*
%TO.N,DB7*%
X64777000Y-105533900D02*
X64777000Y-107126000D01*
X75098300Y-62775500D02*
X81287000Y-68964200D01*
X74956300Y-62775500D02*
X75098300Y-62775500D01*
X67317000Y-101033000D02*
X67317000Y-103638100D01*
X65724900Y-104586000D02*
X64777000Y-105533900D01*
X66369100Y-104586000D02*
X65724900Y-104586000D01*
X78290400Y-74996600D02*
X66326500Y-74996600D01*
X81287000Y-72000000D02*
X78290400Y-74996600D01*
X64777000Y-107126000D02*
X63507000Y-108396000D01*
X72971700Y-60790900D02*
X74956300Y-62775500D01*
X67317000Y-103638100D02*
X66369100Y-104586000D01*
X71820000Y-57960000D02*
X72971700Y-59111700D01*
X72971700Y-59111700D02*
X72971700Y-60790900D01*
X66326500Y-74996600D02*
X66323500Y-74999600D01*
X67514600Y-100835400D02*
X67317000Y-101033000D01*
X81287000Y-68964200D02*
X81287000Y-72000000D01*
%TO.N,ATN*%
X90870000Y-59230000D02*
X92140000Y-57960000D01*
X82968700Y-75398300D02*
X68976400Y-75398300D01*
X86367000Y-71786800D02*
X90870000Y-67283800D01*
X68976400Y-75398300D02*
X68582500Y-75792200D01*
X90870000Y-67283800D02*
X90870000Y-59230000D01*
X86367000Y-72000000D02*
X82968700Y-75398300D01*
%TO.N,DB1*%
X49537000Y-107126000D02*
X51129100Y-107126000D01*
X53669100Y-104586000D02*
X54617000Y-103638100D01*
X52077000Y-106178100D02*
X52077000Y-105533900D01*
X54617000Y-103026800D02*
X56371200Y-101272600D01*
X48267000Y-108396000D02*
X49537000Y-107126000D01*
X53024900Y-104586000D02*
X53669100Y-104586000D01*
X52077000Y-105533900D02*
X53024900Y-104586000D01*
X54617000Y-103638100D02*
X54617000Y-103026800D01*
X51129100Y-107126000D02*
X52077000Y-106178100D01*
X56371200Y-101272600D02*
X57110000Y-101272600D01*
%TO.N,DB2*%
X57130600Y-70893600D02*
X58237000Y-72000000D01*
X59120000Y-57960000D02*
X57968300Y-59111700D01*
X44086400Y-72029200D02*
X45222000Y-70893600D01*
X57968300Y-59111700D02*
X57968300Y-63231300D01*
X57968300Y-63231300D02*
X58237000Y-63500000D01*
X45222000Y-70893600D02*
X57130600Y-70893600D01*
%TO.N,O{slash}I*%
X92717000Y-105533900D02*
X93664900Y-104586000D01*
X91769100Y-107126000D02*
X92717000Y-106178100D01*
X114150000Y-100350000D02*
X115500000Y-99000000D01*
X88907000Y-108396000D02*
X90177000Y-107126000D01*
X90177000Y-107126000D02*
X91769100Y-107126000D01*
X93664900Y-104586000D02*
X94309100Y-104586000D01*
X115500000Y-99000000D02*
X115650000Y-99000000D01*
X94309100Y-104586000D02*
X95257000Y-103638100D01*
X92717000Y-106178100D02*
X92717000Y-105533900D01*
X95257000Y-103013400D02*
X97920400Y-100350000D01*
X97920400Y-100350000D02*
X114150000Y-100350000D01*
X95257000Y-103638100D02*
X95257000Y-103013400D01*
%TO.N,BSY*%
X95950000Y-59230000D02*
X97220000Y-57960000D01*
X72397000Y-107126000D02*
X73989100Y-107126000D01*
X76529100Y-104586000D02*
X77477000Y-103638100D01*
X95950000Y-64957000D02*
X95950000Y-59230000D01*
X73989100Y-107126000D02*
X74937000Y-106178100D01*
X74937000Y-106178100D02*
X74937000Y-105533900D01*
X88907000Y-72000000D02*
X95950000Y-64957000D01*
X89530000Y-96133200D02*
X89726400Y-95936800D01*
X77477000Y-102855200D02*
X84199000Y-96133200D01*
X84199000Y-96133200D02*
X89530000Y-96133200D01*
X71127000Y-108396000D02*
X72397000Y-107126000D01*
X75884900Y-104586000D02*
X76529100Y-104586000D01*
X74937000Y-105533900D02*
X75884900Y-104586000D01*
X77477000Y-103638100D02*
X77477000Y-102855200D01*
%TO.N,REQ*%
X85249800Y-105435100D02*
X85249800Y-107278800D01*
X96393000Y-99349500D02*
X92717000Y-103025500D01*
X85905600Y-104779300D02*
X85249800Y-105435100D01*
X92717000Y-103025500D02*
X92717000Y-103635800D01*
X91573500Y-104779300D02*
X85905600Y-104779300D01*
X85249800Y-107278800D02*
X86367000Y-108396000D01*
X92717000Y-103635800D02*
X91573500Y-104779300D01*
X113504900Y-99349500D02*
X96393000Y-99349500D01*
%TO.N,DBP*%
X83827000Y-70133400D02*
X75630000Y-61936400D01*
X72397000Y-106180600D02*
X72397000Y-105533900D01*
X75630000Y-61936400D02*
X75630000Y-59230000D01*
X74937000Y-103050100D02*
X82455500Y-95531600D01*
X86327100Y-95531600D02*
X86327100Y-95531500D01*
X66047000Y-108396000D02*
X67317000Y-107126000D01*
X75630000Y-59230000D02*
X74360000Y-57960000D01*
X67317000Y-107126000D02*
X71451600Y-107126000D01*
X73989100Y-104586000D02*
X74937000Y-103638100D01*
X73344900Y-104586000D02*
X73989100Y-104586000D01*
X83827000Y-72000000D02*
X83827000Y-70133400D01*
X82455500Y-95531600D02*
X86327100Y-95531600D01*
X71451600Y-107126000D02*
X72397000Y-106180600D01*
X74937000Y-103638100D02*
X74937000Y-103050100D01*
X72397000Y-105533900D02*
X73344900Y-104586000D01*
%TO.N,D{slash}C*%
X90040200Y-73101700D02*
X87706700Y-75435200D01*
X110975000Y-72000000D02*
X110975000Y-71999900D01*
X106420700Y-70898300D02*
X105775300Y-71543700D01*
X111957000Y-72000000D02*
X110975000Y-72000000D01*
X105775300Y-72142800D02*
X104816400Y-73101700D01*
X110975000Y-71999900D02*
X109873400Y-70898300D01*
X109873400Y-70898300D02*
X106420700Y-70898300D01*
X104816400Y-73101700D02*
X90040200Y-73101700D01*
X105775300Y-71543700D02*
X105775300Y-72142800D01*
%TO.N,DB5*%
X59794500Y-107028500D02*
X58427000Y-108396000D01*
X62237000Y-106169200D02*
X61377700Y-107028500D01*
X64918600Y-102647500D02*
X64918600Y-103439400D01*
X61377700Y-107028500D02*
X59794500Y-107028500D01*
X65470000Y-62558800D02*
X64910800Y-63118000D01*
X65470000Y-59230000D02*
X65470000Y-62558800D01*
X66644700Y-100921400D02*
X64918600Y-102647500D01*
X63155000Y-104643900D02*
X62237000Y-105561900D01*
X62237000Y-105561900D02*
X62237000Y-106169200D01*
X66740000Y-57960000D02*
X65470000Y-59230000D01*
X63714100Y-104643900D02*
X63155000Y-104643900D01*
X64918600Y-103439400D02*
X63714100Y-104643900D01*
%TO.N,DB6*%
X73974700Y-64318600D02*
X75790300Y-64318600D01*
X78747000Y-72000000D02*
X77765000Y-72000000D01*
X75790300Y-64318600D02*
X75790300Y-64318700D01*
X77765000Y-72000000D02*
X77765000Y-71999900D01*
X72748800Y-73900200D02*
X72748800Y-73900300D01*
X70550000Y-60893900D02*
X73974700Y-64318600D01*
X75750700Y-70898300D02*
X72748800Y-73900200D01*
X77765000Y-71999900D02*
X76663400Y-70898300D01*
X69280000Y-57960000D02*
X70550000Y-59230000D01*
X70550000Y-59230000D02*
X70550000Y-60893900D01*
X72748800Y-73900300D02*
X67811100Y-73900300D01*
X76663400Y-70898300D02*
X75750700Y-70898300D01*
%TO.N,DB0*%
X50157400Y-74999600D02*
X53157000Y-72000000D01*
X46209200Y-74999600D02*
X50157400Y-74999600D01*
%TO.N,RST*%
X85097000Y-103638100D02*
X84149100Y-104586000D01*
X82708800Y-106030500D02*
X81613300Y-107126000D01*
X92009200Y-98226100D02*
X89906200Y-98226100D01*
X83495900Y-104586000D02*
X82708800Y-105373100D01*
X104761500Y-97708600D02*
X104893600Y-97708600D01*
X104761500Y-97708600D02*
X92526700Y-97708600D01*
X92009200Y-98226100D02*
X92526700Y-97708600D01*
X89906200Y-98226100D02*
X85097000Y-103035300D01*
X84149100Y-104586000D02*
X83495900Y-104586000D01*
X77477000Y-107126000D02*
X76207000Y-108396000D01*
X85097000Y-103035300D02*
X85097000Y-103638100D01*
X104893600Y-97708600D02*
X104896700Y-97711700D01*
X81613300Y-107126000D02*
X77477000Y-107126000D01*
X82708800Y-105373100D02*
X82708800Y-106030500D01*
%TO.N,DB4*%
X62044900Y-103797300D02*
X62044900Y-102574100D01*
X62044900Y-102574100D02*
X63902000Y-100717000D01*
X62907300Y-70355100D02*
X62907300Y-59252700D01*
X55887000Y-108396000D02*
X57157000Y-107126000D01*
X60644900Y-104586000D02*
X61256200Y-104586000D01*
X59697000Y-105533900D02*
X60644900Y-104586000D01*
X59697000Y-106178100D02*
X59697000Y-105533900D01*
X62907300Y-59252700D02*
X64200000Y-57960000D01*
X57157000Y-107126000D02*
X58749100Y-107126000D01*
X58749100Y-107126000D02*
X59697000Y-106178100D01*
X61256200Y-104586000D02*
X62044900Y-103797300D01*
%TO.N,SEL*%
X112628800Y-97109900D02*
X113389100Y-97870200D01*
X92213700Y-97109900D02*
X112628800Y-97109900D01*
X88330300Y-97274700D02*
X85105000Y-100500000D01*
X92048900Y-97274700D02*
X88330300Y-97274700D01*
X92048900Y-97274700D02*
X92213700Y-97109900D01*
X83247889Y-100500000D02*
X82542838Y-101205051D01*
X85105000Y-100500000D02*
X83247889Y-100500000D01*
%TD*%
M02*
